<svg width="767" height="523" viewBox="0 0 767 523" fill="none" xmlns="http://www.w3.org/2000/svg">
<rect width="767" height="523" fill="white"/>
<rect width="80" height="36" transform="translate(20 379)" fill="#EEEEEE"/>
<path opacity="0.5" d="M26.8788 404V390.236H29.7974V401.59H35.3804V404H26.8788ZM44.2397 404L43.6842 402.569H43.6089C43.1256 403.178 42.6266 403.601 42.1119 403.84C41.6035 404.072 40.9382 404.188 40.116 404.188C39.1055 404.188 38.3084 403.9 37.7247 403.322C37.1472 402.745 36.8585 401.922 36.8585 400.855C36.8585 399.738 37.2476 398.916 38.0259 398.389C38.8105 397.855 39.9905 397.56 41.5659 397.504L43.3923 397.447V396.986C43.3923 395.919 42.8463 395.385 41.7542 395.385C40.9131 395.385 39.9246 395.64 38.7885 396.148L37.8376 394.209C39.049 393.575 40.3922 393.258 41.8672 393.258C43.2794 393.258 44.3621 393.565 45.1153 394.18C45.8684 394.795 46.245 395.731 46.245 396.986V404H44.2397ZM43.3923 399.123L42.2814 399.161C41.4466 399.186 40.8253 399.337 40.4173 399.613C40.0093 399.889 39.8053 400.309 39.8053 400.874C39.8053 401.684 40.2698 402.089 41.1987 402.089C41.864 402.089 42.3944 401.897 42.7898 401.515C43.1915 401.132 43.3923 400.623 43.3923 399.989V399.123ZM47.7043 393.474H50.8488L52.8354 399.396C53.0048 399.911 53.1209 400.52 53.1837 401.223H53.2402C53.3092 400.576 53.4442 399.967 53.645 399.396L55.5939 393.474H58.6725L54.2193 405.346C53.8114 406.445 53.2276 407.267 52.4682 407.813C51.715 408.359 50.8332 408.632 49.8226 408.632C49.3268 408.632 48.8404 408.579 48.3633 408.472V406.194C48.7086 406.275 49.0851 406.316 49.4931 406.316C50.0015 406.316 50.444 406.159 50.8206 405.845C51.2035 405.538 51.5016 405.07 51.715 404.442L51.8845 403.925L47.7043 393.474ZM64.5473 395.32C63.9385 395.32 63.4615 395.514 63.1163 395.903C62.7711 396.286 62.5734 396.832 62.5232 397.541H66.5527C66.5401 396.832 66.355 396.286 65.9972 395.903C65.6394 395.514 65.1562 395.32 64.5473 395.32ZM64.9522 404.188C63.2575 404.188 61.9332 403.721 60.9791 402.785C60.0251 401.85 59.5481 400.526 59.5481 398.812C59.5481 397.049 59.9874 395.687 60.8662 394.726C61.7511 393.76 62.9719 393.277 64.5285 393.277C66.016 393.277 67.1741 393.7 68.0026 394.548C68.8311 395.395 69.2453 396.565 69.2453 398.059V399.453H62.4573C62.4886 400.269 62.7303 400.906 63.1822 401.364C63.6341 401.822 64.268 402.051 65.084 402.051C65.7179 402.051 66.3173 401.985 66.8822 401.853C67.4471 401.722 68.0371 401.511 68.6522 401.223V403.445C68.15 403.696 67.6134 403.881 67.0422 404C66.4711 404.126 65.7744 404.188 64.9522 404.188ZM77.455 393.277C77.8441 393.277 78.1674 393.305 78.4247 393.361L78.2082 396.054C77.9759 395.991 77.6935 395.96 77.3608 395.96C76.4445 395.96 75.7289 396.195 75.2143 396.666C74.7059 397.137 74.4517 397.796 74.4517 398.643V404H71.5802V393.474H73.755L74.1786 395.244H74.3199C74.6462 394.654 75.0856 394.18 75.6379 393.823C76.1965 393.459 76.8022 393.277 77.455 393.277ZM91.8031 404H88.8939V396.035L88.9222 394.726L88.9692 393.295C88.4859 393.779 88.1502 394.096 87.9619 394.246L86.3802 395.517L84.9774 393.766L89.4117 390.236H91.8031V404Z" fill="#2C2727"/>
<rect width="80" height="36" transform="translate(20 25)" fill="#EEEEEE"/>
<path opacity="0.5" d="M26.8788 50V36.2356H29.7974V47.5898H35.3804V50H26.8788ZM44.2397 50L43.6842 48.569H43.6089C43.1256 49.1778 42.6266 49.6014 42.1119 49.8399C41.6035 50.0722 40.9382 50.1883 40.116 50.1883C39.1055 50.1883 38.3084 49.8996 37.7247 49.3221C37.1472 48.7447 36.8585 47.9225 36.8585 46.8555C36.8585 45.7382 37.2476 44.916 38.0259 44.3888C38.8105 43.8553 39.9905 43.5603 41.5659 43.5038L43.3923 43.4473V42.986C43.3923 41.919 42.8463 41.3855 41.7542 41.3855C40.9131 41.3855 39.9246 41.6397 38.7885 42.1481L37.8376 40.2086C39.049 39.5747 40.3922 39.2577 41.8672 39.2577C43.2794 39.2577 44.3621 39.5653 45.1153 40.1804C45.8684 40.7955 46.245 41.7307 46.245 42.986V50H44.2397ZM43.3923 45.1232L42.2814 45.1608C41.4466 45.1859 40.8253 45.3366 40.4173 45.6127C40.0093 45.8889 39.8053 46.3094 39.8053 46.8743C39.8053 47.684 40.2698 48.0888 41.1987 48.0888C41.864 48.0888 42.3944 47.8974 42.7898 47.5145C43.1915 47.1316 43.3923 46.6232 43.3923 45.9893V45.1232ZM47.7043 39.4743H50.8488L52.8354 45.3962C53.0048 45.9109 53.1209 46.5197 53.1837 47.2226H53.2402C53.3092 46.5762 53.4442 45.9673 53.645 45.3962L55.5939 39.4743H58.6725L54.2193 51.3463C53.8114 52.4447 53.2276 53.2669 52.4682 53.813C51.715 54.359 50.8332 54.6321 49.8226 54.6321C49.3268 54.6321 48.8404 54.5787 48.3633 54.472V52.1936C48.7086 52.2752 49.0851 52.316 49.4931 52.316C50.0015 52.316 50.444 52.1591 50.8206 51.8453C51.2035 51.5377 51.5016 51.0701 51.715 50.4425L51.8845 49.9247L47.7043 39.4743ZM64.5473 41.3196C63.9385 41.3196 63.4615 41.5142 63.1163 41.9033C62.7711 42.2862 62.5734 42.8322 62.5232 43.5415H66.5527C66.5401 42.8322 66.355 42.2862 65.9972 41.9033C65.6394 41.5142 65.1562 41.3196 64.5473 41.3196ZM64.9522 50.1883C63.2575 50.1883 61.9332 49.7207 60.9791 48.7855C60.0251 47.8503 59.5481 46.526 59.5481 44.8125C59.5481 43.0488 59.9874 41.6868 60.8662 40.7265C61.7511 39.7599 62.9719 39.2766 64.5285 39.2766C66.016 39.2766 67.1741 39.7002 68.0026 40.5476C68.8311 41.3949 69.2453 42.5655 69.2453 44.0593V45.4527H62.4573C62.4886 46.2686 62.7303 46.9057 63.1822 47.3639C63.6341 47.8221 64.268 48.0511 65.084 48.0511C65.7179 48.0511 66.3173 47.9852 66.8822 47.8534C67.4471 47.7216 68.0371 47.5114 68.6522 47.2226V49.4445C68.15 49.6956 67.6134 49.8807 67.0422 50C66.4711 50.1255 65.7744 50.1883 64.9522 50.1883ZM77.455 39.2766C77.8441 39.2766 78.1674 39.3048 78.4247 39.3613L78.2082 42.0539C77.9759 41.9912 77.6935 41.9598 77.3608 41.9598C76.4445 41.9598 75.7289 42.1952 75.2143 42.6659C74.7059 43.1366 74.4517 43.7957 74.4517 44.643V50H71.5802V39.4743H73.755L74.1786 41.2443H74.3199C74.6462 40.6543 75.0856 40.1804 75.6379 39.8226C76.1965 39.4586 76.8022 39.2766 77.455 39.2766ZM94.2321 50H84.6102V47.9758L88.0654 44.4829C89.0885 43.4348 89.7569 42.7098 90.0708 42.3081C90.3846 41.9002 90.6105 41.5236 90.7486 41.1784C90.8867 40.8332 90.9558 40.4754 90.9558 40.1051C90.9558 39.5527 90.802 39.1416 90.4944 38.8717C90.1932 38.6019 89.7883 38.4669 89.2799 38.4669C88.7464 38.4669 88.2286 38.5893 87.7265 38.8341C87.2244 39.0789 86.7003 39.4272 86.1542 39.8791L84.5725 38.0056C85.2504 37.4281 85.8122 37.0202 86.2578 36.7817C86.7034 36.5432 87.1898 36.3611 87.7171 36.2356C88.2443 36.1038 88.8343 36.0379 89.4871 36.0379C90.3469 36.0379 91.1064 36.1948 91.7654 36.5086C92.4245 36.8225 92.936 37.2618 93.3 37.8267C93.6641 38.3916 93.8461 39.0381 93.8461 39.7661C93.8461 40.4001 93.7331 40.9963 93.5072 41.555C93.2875 42.1073 92.9423 42.6753 92.4715 43.259C92.0071 43.8427 91.1848 44.6744 90.0049 45.7539L88.2349 47.4204V47.5522H94.2321V50Z" fill="#2C2727"/>
<path d="M30 357L734 357" stroke="#DBDBDB" stroke-dasharray="2 2"/>
<rect x="361.412" y="122.412" width="125.788" height="60.9569" rx="4.97493" fill="#852DA5" stroke="#60147A" stroke-width="0.823742"/>
<path d="M409.8 158.36H407.298L407.314 156.514H409.8C410.42 156.514 410.944 156.374 411.37 156.096C411.796 155.812 412.117 155.399 412.333 154.857C412.554 154.315 412.664 153.66 412.664 152.892V152.332C412.664 151.743 412.601 151.224 412.475 150.777C412.354 150.33 412.172 149.954 411.93 149.649C411.688 149.344 411.391 149.115 411.039 148.962C410.686 148.805 410.281 148.726 409.823 148.726H407.251V146.871H409.823C410.591 146.871 411.294 147.003 411.93 147.266C412.572 147.524 413.127 147.894 413.595 148.378C414.063 148.862 414.424 149.441 414.676 150.114C414.934 150.783 415.063 151.527 415.063 152.348V152.892C415.063 153.707 414.934 154.452 414.676 155.125C414.424 155.798 414.063 156.377 413.595 156.861C413.132 157.34 412.577 157.711 411.93 157.974C411.288 158.231 410.578 158.36 409.8 158.36ZM408.64 146.871V158.36H406.273V146.871H408.64ZM421.281 148.836L418.156 158.36H415.639L419.908 146.871H421.51L421.281 148.836ZM423.877 158.36L420.744 148.836L420.492 146.871H422.109L426.402 158.36H423.877ZM423.735 154.084V155.938H417.667V154.084H423.735ZM436.763 152.348V152.892C436.763 153.765 436.644 154.549 436.408 155.243C436.171 155.938 435.837 156.53 435.405 157.019C434.974 157.503 434.459 157.874 433.859 158.132C433.264 158.389 432.604 158.518 431.878 158.518C431.158 158.518 430.497 158.389 429.898 158.132C429.303 157.874 428.788 157.503 428.351 157.019C427.914 156.53 427.575 155.938 427.333 155.243C427.096 154.549 426.978 153.765 426.978 152.892V152.348C426.978 151.469 427.096 150.685 427.333 149.996C427.57 149.302 427.904 148.71 428.335 148.221C428.772 147.731 429.287 147.358 429.882 147.1C430.482 146.842 431.142 146.714 431.862 146.714C432.588 146.714 433.249 146.842 433.843 147.1C434.443 147.358 434.958 147.731 435.39 148.221C435.826 148.71 436.163 149.302 436.4 149.996C436.642 150.685 436.763 151.469 436.763 152.348ZM434.372 152.892V152.332C434.372 151.722 434.316 151.185 434.206 150.722C434.096 150.259 433.932 149.87 433.717 149.554C433.501 149.239 433.238 149.002 432.928 148.844C432.617 148.681 432.262 148.599 431.862 148.599C431.463 148.599 431.108 148.681 430.797 148.844C430.492 149.002 430.232 149.239 430.016 149.554C429.806 149.87 429.645 150.259 429.535 150.722C429.424 151.185 429.369 151.722 429.369 152.332V152.892C429.369 153.497 429.424 154.034 429.535 154.502C429.645 154.965 429.808 155.357 430.024 155.677C430.24 155.993 430.503 156.232 430.813 156.396C431.123 156.559 431.478 156.64 431.878 156.64C432.278 156.64 432.633 156.559 432.943 156.396C433.254 156.232 433.514 155.993 433.725 155.677C433.935 155.357 434.096 154.965 434.206 154.502C434.316 154.034 434.372 153.497 434.372 152.892Z" fill="white"/>
<rect x="320.412" y="408.412" width="127.176" height="61.1763" rx="4.97493" fill="#609FFF" stroke="#3677D9" stroke-width="0.823742"/>
<path d="M351.017 442.154V444H345.233V442.154H351.017ZM345.999 432.511V444H343.631V432.511H345.999ZM357.677 432.487V444H355.404V435.107L352.674 435.975V434.184L357.432 432.487H357.677ZM370.389 432.511V444H368.03V432.511H370.389ZM373.924 432.511V434.365H364.55V432.511H373.924ZM376.852 437.324V444H374.579V435.462H376.718L376.852 437.324ZM379.424 435.407L379.385 437.514C379.274 437.498 379.14 437.485 378.982 437.474C378.83 437.459 378.69 437.451 378.564 437.451C378.243 437.451 377.964 437.493 377.728 437.577C377.496 437.656 377.301 437.774 377.144 437.932C376.991 438.09 376.875 438.282 376.796 438.508C376.723 438.734 376.681 438.992 376.67 439.281L376.213 439.139C376.213 438.587 376.268 438.079 376.378 437.616C376.489 437.148 376.649 436.74 376.86 436.393C377.075 436.046 377.338 435.778 377.649 435.588C377.959 435.399 378.314 435.304 378.714 435.304C378.84 435.304 378.969 435.315 379.101 435.336C379.232 435.352 379.34 435.375 379.424 435.407ZM384.269 444.158C383.606 444.158 383.012 444.053 382.486 443.842C381.96 443.627 381.513 443.329 381.144 442.951C380.781 442.572 380.502 442.133 380.308 441.633C380.113 441.128 380.016 440.591 380.016 440.023V439.707C380.016 439.06 380.108 438.469 380.292 437.932C380.476 437.395 380.739 436.93 381.081 436.535C381.428 436.141 381.849 435.838 382.344 435.628C382.838 435.412 383.396 435.304 384.017 435.304C384.621 435.304 385.158 435.404 385.626 435.604C386.094 435.804 386.486 436.088 386.802 436.456C387.123 436.825 387.365 437.267 387.528 437.782C387.691 438.292 387.773 438.86 387.773 439.486V440.433H380.986V438.918H385.539V438.745C385.539 438.429 385.482 438.148 385.366 437.9C385.255 437.648 385.087 437.448 384.861 437.301C384.635 437.153 384.345 437.08 383.993 437.08C383.693 437.08 383.435 437.146 383.22 437.277C383.004 437.409 382.828 437.593 382.691 437.829C382.559 438.066 382.459 438.345 382.391 438.666C382.328 438.981 382.296 439.329 382.296 439.707V440.023C382.296 440.365 382.344 440.681 382.438 440.97C382.538 441.259 382.678 441.509 382.857 441.72C383.041 441.93 383.262 442.093 383.519 442.209C383.782 442.325 384.08 442.382 384.411 442.382C384.821 442.382 385.203 442.303 385.555 442.146C385.913 441.983 386.221 441.738 386.478 441.412L387.583 442.611C387.404 442.869 387.16 443.116 386.849 443.353C386.544 443.59 386.176 443.784 385.745 443.937C385.313 444.084 384.821 444.158 384.269 444.158ZM393.675 442.075V438.271C393.675 437.998 393.63 437.764 393.541 437.569C393.451 437.369 393.312 437.214 393.123 437.103C392.938 436.993 392.699 436.938 392.404 436.938C392.152 436.938 391.934 436.982 391.75 437.072C391.565 437.156 391.423 437.28 391.323 437.443C391.223 437.601 391.173 437.787 391.173 438.003H388.901C388.901 437.64 388.985 437.295 389.153 436.969C389.322 436.643 389.566 436.356 389.887 436.109C390.208 435.857 390.59 435.659 391.031 435.517C391.479 435.375 391.978 435.304 392.531 435.304C393.194 435.304 393.783 435.415 394.298 435.636C394.814 435.857 395.219 436.188 395.513 436.63C395.813 437.072 395.963 437.624 395.963 438.287V441.94C395.963 442.409 395.992 442.793 396.05 443.093C396.108 443.387 396.192 443.645 396.303 443.866V444H394.006C393.896 443.769 393.812 443.479 393.754 443.132C393.701 442.78 393.675 442.427 393.675 442.075ZM393.975 438.8L393.991 440.086H392.72C392.42 440.086 392.16 440.12 391.939 440.189C391.718 440.257 391.536 440.354 391.394 440.481C391.252 440.602 391.147 440.744 391.079 440.907C391.016 441.07 390.984 441.249 390.984 441.443C390.984 441.638 391.029 441.814 391.118 441.972C391.208 442.125 391.337 442.246 391.505 442.335C391.673 442.419 391.871 442.461 392.097 442.461C392.439 442.461 392.736 442.393 392.988 442.256C393.241 442.119 393.436 441.951 393.572 441.751C393.714 441.551 393.788 441.362 393.793 441.183L394.393 442.146C394.309 442.361 394.193 442.585 394.046 442.816C393.904 443.048 393.722 443.266 393.501 443.471C393.28 443.671 393.015 443.837 392.704 443.968C392.394 444.095 392.026 444.158 391.6 444.158C391.058 444.158 390.566 444.05 390.124 443.834C389.687 443.613 389.34 443.311 389.082 442.927C388.83 442.538 388.704 442.096 388.704 441.601C388.704 441.154 388.788 440.757 388.956 440.41C389.125 440.062 389.372 439.771 389.698 439.534C390.029 439.292 390.442 439.11 390.937 438.989C391.431 438.863 392.005 438.8 392.657 438.8H393.975ZM402.331 441.641C402.331 441.478 402.284 441.33 402.189 441.199C402.094 441.067 401.918 440.946 401.66 440.836C401.408 440.72 401.042 440.615 400.564 440.52C400.132 440.425 399.73 440.307 399.356 440.165C398.988 440.018 398.667 439.842 398.394 439.636C398.125 439.431 397.915 439.189 397.762 438.91C397.61 438.626 397.533 438.303 397.533 437.94C397.533 437.582 397.61 437.245 397.762 436.93C397.92 436.614 398.144 436.335 398.433 436.093C398.728 435.846 399.085 435.654 399.506 435.517C399.932 435.375 400.411 435.304 400.942 435.304C401.684 435.304 402.321 435.423 402.852 435.659C403.388 435.896 403.799 436.222 404.083 436.638C404.372 437.048 404.517 437.516 404.517 438.042H402.244C402.244 437.821 402.197 437.624 402.102 437.451C402.013 437.272 401.871 437.132 401.676 437.032C401.487 436.927 401.24 436.875 400.934 436.875C400.682 436.875 400.464 436.919 400.279 437.009C400.095 437.093 399.953 437.209 399.853 437.356C399.759 437.498 399.711 437.656 399.711 437.829C399.711 437.961 399.738 438.079 399.79 438.184C399.848 438.284 399.94 438.376 400.066 438.461C400.193 438.545 400.356 438.624 400.556 438.697C400.761 438.766 401.013 438.829 401.313 438.887C401.929 439.013 402.478 439.179 402.962 439.384C403.446 439.584 403.83 439.857 404.114 440.205C404.399 440.546 404.541 440.996 404.541 441.554C404.541 441.933 404.456 442.28 404.288 442.595C404.12 442.911 403.878 443.187 403.562 443.424C403.246 443.655 402.868 443.837 402.426 443.968C401.989 444.095 401.497 444.158 400.95 444.158C400.156 444.158 399.483 444.016 398.93 443.732C398.383 443.448 397.967 443.087 397.683 442.651C397.405 442.209 397.265 441.756 397.265 441.293H399.419C399.43 441.604 399.509 441.854 399.656 442.043C399.809 442.232 400.001 442.369 400.232 442.453C400.469 442.538 400.724 442.58 400.998 442.58C401.292 442.58 401.537 442.54 401.731 442.461C401.926 442.377 402.073 442.267 402.173 442.13C402.279 441.988 402.331 441.825 402.331 441.641ZM411.066 441.956V435.462H413.339V444H411.2L411.066 441.956ZM411.319 440.205L411.989 440.189C411.989 440.757 411.924 441.286 411.792 441.775C411.661 442.259 411.463 442.68 411.2 443.037C410.937 443.39 410.606 443.666 410.206 443.866C409.806 444.06 409.336 444.158 408.794 444.158C408.378 444.158 407.994 444.1 407.642 443.984C407.294 443.863 406.995 443.676 406.742 443.424C406.495 443.166 406.3 442.837 406.158 442.438C406.021 442.033 405.953 441.546 405.953 440.978V435.462H408.226V440.994C408.226 441.246 408.254 441.459 408.312 441.633C408.375 441.806 408.462 441.948 408.573 442.059C408.683 442.169 408.812 442.248 408.959 442.296C409.112 442.343 409.28 442.367 409.464 442.367C409.933 442.367 410.301 442.272 410.569 442.083C410.843 441.893 411.035 441.635 411.145 441.309C411.261 440.978 411.319 440.61 411.319 440.205ZM417.347 437.324V444H415.075V435.462H417.213L417.347 437.324ZM419.92 435.407L419.88 437.514C419.77 437.498 419.636 437.485 419.478 437.474C419.325 437.459 419.186 437.451 419.06 437.451C418.739 437.451 418.46 437.493 418.223 437.577C417.992 437.656 417.797 437.774 417.639 437.932C417.487 438.09 417.371 438.282 417.292 438.508C417.218 438.734 417.176 438.992 417.166 439.281L416.708 439.139C416.708 438.587 416.763 438.079 416.874 437.616C416.984 437.148 417.145 436.74 417.355 436.393C417.571 436.046 417.834 435.778 418.144 435.588C418.455 435.399 418.81 435.304 419.21 435.304C419.336 435.304 419.465 435.315 419.596 435.336C419.728 435.352 419.836 435.375 419.92 435.407ZM423.668 443.037L425.933 435.462H428.371L424.938 445.286C424.865 445.502 424.765 445.733 424.638 445.981C424.517 446.228 424.352 446.462 424.141 446.683C423.936 446.909 423.676 447.093 423.36 447.235C423.05 447.377 422.668 447.448 422.216 447.448C422 447.448 421.824 447.435 421.687 447.409C421.551 447.383 421.387 447.346 421.198 447.298V445.633C421.256 445.633 421.316 445.633 421.38 445.633C421.443 445.639 421.503 445.641 421.561 445.641C421.861 445.641 422.106 445.607 422.295 445.539C422.484 445.47 422.637 445.365 422.753 445.223C422.868 445.086 422.96 444.907 423.029 444.687L423.668 443.037ZM422.721 435.462L424.575 441.649L424.899 444.055L423.352 444.221L420.283 435.462H422.721Z" fill="white"/>
<rect x="430.412" y="264.412" width="127.176" height="61.1763" rx="4.97493" fill="#609FFF" stroke="#3677D9" stroke-width="0.823742"/>
<path d="M461.017 298.154V300H455.233V298.154H461.017ZM455.999 288.511V300H453.631V288.511H455.999ZM469.997 298.225V300H462.138V298.485L465.854 294.5C466.228 294.085 466.522 293.719 466.738 293.403C466.954 293.082 467.109 292.796 467.204 292.543C467.303 292.285 467.353 292.041 467.353 291.809C467.353 291.462 467.296 291.165 467.18 290.918C467.064 290.665 466.893 290.471 466.667 290.334C466.446 290.197 466.172 290.129 465.846 290.129C465.499 290.129 465.199 290.213 464.947 290.381C464.7 290.549 464.51 290.784 464.379 291.083C464.252 291.383 464.189 291.723 464.189 292.101H461.909C461.909 291.417 462.072 290.791 462.398 290.223C462.724 289.65 463.184 289.195 463.779 288.858C464.373 288.516 465.078 288.345 465.894 288.345C466.699 288.345 467.377 288.477 467.929 288.74C468.487 288.998 468.908 289.371 469.192 289.86C469.481 290.344 469.626 290.923 469.626 291.596C469.626 291.975 469.566 292.346 469.445 292.709C469.324 293.067 469.15 293.424 468.924 293.782C468.703 294.134 468.435 294.492 468.119 294.855C467.803 295.218 467.453 295.594 467.069 295.984L465.073 298.225H469.997ZM480.389 288.511V300H478.03V288.511H480.389ZM483.924 288.511V290.365H474.55V288.511H483.924ZM486.852 293.324V300H484.579V291.462H486.718L486.852 293.324ZM489.424 291.407L489.385 293.514C489.274 293.498 489.14 293.485 488.982 293.474C488.83 293.459 488.69 293.451 488.564 293.451C488.243 293.451 487.964 293.493 487.728 293.577C487.496 293.656 487.301 293.774 487.144 293.932C486.991 294.09 486.875 294.282 486.796 294.508C486.723 294.734 486.681 294.992 486.67 295.281L486.213 295.139C486.213 294.587 486.268 294.079 486.378 293.616C486.489 293.148 486.649 292.74 486.86 292.393C487.075 292.046 487.338 291.778 487.649 291.588C487.959 291.399 488.314 291.304 488.714 291.304C488.84 291.304 488.969 291.315 489.101 291.336C489.232 291.352 489.34 291.375 489.424 291.407ZM494.269 300.158C493.606 300.158 493.012 300.053 492.486 299.842C491.96 299.627 491.513 299.329 491.144 298.951C490.781 298.572 490.502 298.133 490.308 297.633C490.113 297.128 490.016 296.591 490.016 296.023V295.707C490.016 295.06 490.108 294.469 490.292 293.932C490.476 293.395 490.739 292.93 491.081 292.535C491.428 292.141 491.849 291.838 492.344 291.628C492.838 291.412 493.396 291.304 494.017 291.304C494.621 291.304 495.158 291.404 495.626 291.604C496.094 291.804 496.486 292.088 496.802 292.456C497.123 292.825 497.365 293.267 497.528 293.782C497.691 294.292 497.773 294.86 497.773 295.486V296.433H490.986V294.918H495.539V294.745C495.539 294.429 495.482 294.148 495.366 293.9C495.255 293.648 495.087 293.448 494.861 293.301C494.635 293.153 494.345 293.08 493.993 293.08C493.693 293.08 493.435 293.146 493.22 293.277C493.004 293.409 492.828 293.593 492.691 293.829C492.559 294.066 492.459 294.345 492.391 294.666C492.328 294.981 492.296 295.329 492.296 295.707V296.023C492.296 296.365 492.344 296.681 492.438 296.97C492.538 297.259 492.678 297.509 492.857 297.72C493.041 297.93 493.262 298.093 493.519 298.209C493.782 298.325 494.08 298.382 494.411 298.382C494.821 298.382 495.203 298.303 495.555 298.146C495.913 297.983 496.221 297.738 496.478 297.412L497.583 298.611C497.404 298.869 497.16 299.116 496.849 299.353C496.544 299.59 496.176 299.784 495.745 299.937C495.313 300.084 494.821 300.158 494.269 300.158ZM503.675 298.075V294.271C503.675 293.998 503.63 293.764 503.541 293.569C503.451 293.369 503.312 293.214 503.123 293.103C502.938 292.993 502.699 292.938 502.404 292.938C502.152 292.938 501.934 292.982 501.75 293.072C501.565 293.156 501.423 293.28 501.323 293.443C501.223 293.601 501.173 293.787 501.173 294.003H498.901C498.901 293.64 498.985 293.295 499.153 292.969C499.322 292.643 499.566 292.356 499.887 292.109C500.208 291.857 500.59 291.659 501.031 291.517C501.479 291.375 501.978 291.304 502.531 291.304C503.194 291.304 503.783 291.415 504.298 291.636C504.814 291.857 505.219 292.188 505.513 292.63C505.813 293.072 505.963 293.624 505.963 294.287V297.94C505.963 298.409 505.992 298.793 506.05 299.093C506.108 299.387 506.192 299.645 506.303 299.866V300H504.006C503.896 299.769 503.812 299.479 503.754 299.132C503.701 298.78 503.675 298.427 503.675 298.075ZM503.975 294.8L503.991 296.086H502.72C502.42 296.086 502.16 296.12 501.939 296.189C501.718 296.257 501.536 296.354 501.394 296.481C501.252 296.602 501.147 296.744 501.079 296.907C501.016 297.07 500.984 297.249 500.984 297.443C500.984 297.638 501.029 297.814 501.118 297.972C501.208 298.125 501.337 298.246 501.505 298.335C501.673 298.419 501.871 298.461 502.097 298.461C502.439 298.461 502.736 298.393 502.988 298.256C503.241 298.119 503.436 297.951 503.572 297.751C503.714 297.551 503.788 297.362 503.793 297.183L504.393 298.146C504.309 298.361 504.193 298.585 504.046 298.816C503.904 299.048 503.722 299.266 503.501 299.471C503.28 299.671 503.015 299.837 502.704 299.968C502.394 300.095 502.026 300.158 501.6 300.158C501.058 300.158 500.566 300.05 500.124 299.834C499.687 299.613 499.34 299.311 499.082 298.927C498.83 298.538 498.704 298.096 498.704 297.601C498.704 297.154 498.788 296.757 498.956 296.41C499.125 296.062 499.372 295.771 499.698 295.534C500.029 295.292 500.442 295.11 500.937 294.989C501.431 294.863 502.005 294.8 502.657 294.8H503.975ZM512.331 297.641C512.331 297.478 512.284 297.33 512.189 297.199C512.094 297.067 511.918 296.946 511.66 296.836C511.408 296.72 511.042 296.615 510.564 296.52C510.132 296.425 509.73 296.307 509.356 296.165C508.988 296.018 508.667 295.842 508.394 295.636C508.125 295.431 507.915 295.189 507.762 294.91C507.61 294.626 507.533 294.303 507.533 293.94C507.533 293.582 507.61 293.245 507.762 292.93C507.92 292.614 508.144 292.335 508.433 292.093C508.728 291.846 509.085 291.654 509.506 291.517C509.932 291.375 510.411 291.304 510.942 291.304C511.684 291.304 512.321 291.423 512.852 291.659C513.388 291.896 513.799 292.222 514.083 292.638C514.372 293.048 514.517 293.516 514.517 294.042H512.244C512.244 293.821 512.197 293.624 512.102 293.451C512.013 293.272 511.871 293.132 511.676 293.032C511.487 292.927 511.24 292.875 510.934 292.875C510.682 292.875 510.464 292.919 510.279 293.009C510.095 293.093 509.953 293.209 509.853 293.356C509.759 293.498 509.711 293.656 509.711 293.829C509.711 293.961 509.738 294.079 509.79 294.184C509.848 294.284 509.94 294.376 510.066 294.461C510.193 294.545 510.356 294.624 510.556 294.697C510.761 294.766 511.013 294.829 511.313 294.887C511.929 295.013 512.478 295.179 512.962 295.384C513.446 295.584 513.83 295.857 514.114 296.205C514.399 296.546 514.541 296.996 514.541 297.554C514.541 297.933 514.456 298.28 514.288 298.595C514.12 298.911 513.878 299.187 513.562 299.424C513.246 299.655 512.868 299.837 512.426 299.968C511.989 300.095 511.497 300.158 510.95 300.158C510.156 300.158 509.483 300.016 508.93 299.732C508.383 299.448 507.967 299.087 507.683 298.651C507.405 298.209 507.265 297.756 507.265 297.293H509.419C509.43 297.604 509.509 297.854 509.656 298.043C509.809 298.232 510.001 298.369 510.232 298.453C510.469 298.538 510.724 298.58 510.998 298.58C511.292 298.58 511.537 298.54 511.731 298.461C511.926 298.377 512.073 298.267 512.173 298.13C512.279 297.988 512.331 297.825 512.331 297.641ZM521.066 297.956V291.462H523.339V300H521.2L521.066 297.956ZM521.319 296.205L521.989 296.189C521.989 296.757 521.924 297.286 521.792 297.775C521.661 298.259 521.463 298.68 521.2 299.037C520.937 299.39 520.606 299.666 520.206 299.866C519.806 300.06 519.336 300.158 518.794 300.158C518.378 300.158 517.994 300.1 517.642 299.984C517.294 299.863 516.995 299.676 516.742 299.424C516.495 299.166 516.3 298.837 516.158 298.438C516.021 298.033 515.953 297.546 515.953 296.978V291.462H518.226V296.994C518.226 297.246 518.254 297.459 518.312 297.633C518.375 297.806 518.462 297.948 518.573 298.059C518.683 298.169 518.812 298.248 518.959 298.296C519.112 298.343 519.28 298.367 519.464 298.367C519.933 298.367 520.301 298.272 520.569 298.083C520.843 297.893 521.035 297.635 521.145 297.309C521.261 296.978 521.319 296.61 521.319 296.205ZM527.347 293.324V300H525.075V291.462H527.213L527.347 293.324ZM529.92 291.407L529.88 293.514C529.77 293.498 529.636 293.485 529.478 293.474C529.325 293.459 529.186 293.451 529.06 293.451C528.739 293.451 528.46 293.493 528.223 293.577C527.992 293.656 527.797 293.774 527.639 293.932C527.487 294.09 527.371 294.282 527.292 294.508C527.218 294.734 527.176 294.992 527.166 295.281L526.708 295.139C526.708 294.587 526.763 294.079 526.874 293.616C526.984 293.148 527.145 292.74 527.355 292.393C527.571 292.046 527.834 291.778 528.144 291.588C528.455 291.399 528.81 291.304 529.21 291.304C529.336 291.304 529.465 291.315 529.596 291.336C529.728 291.352 529.836 291.375 529.92 291.407ZM533.668 299.037L535.933 291.462H538.371L534.938 301.286C534.865 301.502 534.765 301.733 534.638 301.981C534.517 302.228 534.352 302.462 534.141 302.683C533.936 302.909 533.676 303.093 533.36 303.235C533.05 303.377 532.668 303.448 532.216 303.448C532 303.448 531.824 303.435 531.687 303.409C531.551 303.383 531.387 303.346 531.198 303.298V301.633C531.256 301.633 531.316 301.633 531.38 301.633C531.443 301.639 531.503 301.641 531.561 301.641C531.861 301.641 532.106 301.607 532.295 301.539C532.484 301.47 532.637 301.365 532.753 301.223C532.868 301.086 532.96 300.907 533.029 300.687L533.668 299.037ZM532.721 291.462L534.575 297.649L534.899 300.055L533.352 300.221L530.283 291.462H532.721Z" fill="white"/>
<circle cx="701.887" cy="150.887" r="17.8871" fill="#EEEEEE"/>
<path d="M701.404 150.403C702.24 150.403 703.058 150.155 703.754 149.691C704.449 149.226 704.992 148.565 705.312 147.792C705.632 147.019 705.716 146.169 705.552 145.348C705.389 144.528 704.986 143.774 704.395 143.182C703.803 142.591 703.049 142.188 702.229 142.025C701.408 141.861 700.558 141.945 699.785 142.265C699.012 142.586 698.351 143.128 697.887 143.823C697.422 144.519 697.174 145.337 697.174 146.173C697.174 147.295 697.619 148.371 698.413 149.165C699.206 149.958 700.282 150.403 701.404 150.403ZM701.404 151.612C698.782 151.612 693.548 153.232 693.548 156.446V158.864H709.26V156.446C709.26 153.232 704.026 151.612 701.404 151.612Z" fill="#4D4D4D"/>
<path d="M519.19 146.612C518.812 146.235 518.812 145.623 519.19 145.245L525.343 139.092C525.721 138.714 526.333 138.714 526.71 139.092C527.088 139.469 527.088 140.082 526.71 140.459L521.241 145.929L526.71 151.398C527.088 151.776 527.088 152.388 526.71 152.766C526.333 153.143 525.721 153.143 525.343 152.766L519.19 146.612ZM665.856 146.896L519.874 146.896L519.874 144.962L665.856 144.962L665.856 146.896Z" fill="#DEDEDE"/>
<path d="M390.684 194.316C390.306 193.939 389.694 193.939 389.316 194.316L383.163 200.469C382.786 200.847 382.786 201.459 383.163 201.837C383.541 202.214 384.153 202.214 384.531 201.837L390 196.367L395.47 201.837C395.847 202.214 396.459 202.214 396.837 201.837C397.215 201.459 397.215 200.847 396.837 200.469L390.684 194.316ZM389.316 386.184C389.694 386.561 390.306 386.561 390.684 386.184L396.837 380.031C397.215 379.653 397.215 379.041 396.837 378.663C396.459 378.286 395.847 378.286 395.47 378.663L390 384.133L384.531 378.663C384.153 378.286 383.541 378.286 383.163 378.663C382.786 379.041 382.786 379.653 383.163 380.031L389.316 386.184ZM389.033 195L389.033 385.5L390.967 385.5L390.967 195H389.033Z" fill="#DEDEDE"/>
<path d="M455.683 194.316C455.306 193.939 454.694 193.939 454.316 194.316L448.163 200.469C447.785 200.847 447.785 201.459 448.163 201.837C448.54 202.214 449.153 202.214 449.53 201.837L455 196.367L460.469 201.837C460.847 202.214 461.459 202.214 461.836 201.837C462.214 201.459 462.214 200.847 461.836 200.469L455.683 194.316ZM454.316 253.684C454.694 254.061 455.306 254.061 455.683 253.684L461.836 247.531C462.214 247.153 462.214 246.541 461.836 246.163C461.459 245.786 460.847 245.786 460.469 246.163L455 251.633L449.53 246.163C449.153 245.786 448.54 245.786 448.163 246.163C447.785 246.541 447.785 247.153 448.163 247.531L454.316 253.684ZM454.033 195L454.033 253L455.967 253L455.967 195H454.033Z" fill="#DEDEDE"/>
<path d="M526.199 168.258C526.199 169.046 525.929 169.653 525.389 170.079C524.853 170.502 524.084 170.713 523.083 170.713H522.167V173.775H521.262V165.989H523.28C525.226 165.989 526.199 166.745 526.199 168.258ZM522.167 169.936H522.982C523.784 169.936 524.365 169.806 524.724 169.547C525.082 169.288 525.261 168.872 525.261 168.301C525.261 167.786 525.093 167.402 524.755 167.15C524.418 166.898 523.893 166.772 523.179 166.772H522.167V169.936ZM530.691 167.832C530.95 167.832 531.182 167.853 531.388 167.896L531.266 168.716C531.024 168.663 530.811 168.636 530.627 168.636C530.155 168.636 529.75 168.828 529.412 169.211C529.079 169.595 528.912 170.072 528.912 170.644V173.775H528.028V167.938H528.757L528.859 169.02H528.901C529.118 168.64 529.379 168.347 529.684 168.141C529.989 167.935 530.325 167.832 530.691 167.832ZM537.845 170.852C537.845 171.803 537.606 172.547 537.126 173.083C536.647 173.616 535.985 173.882 535.14 173.882C534.618 173.882 534.155 173.759 533.75 173.514C533.345 173.269 533.033 172.918 532.813 172.46C532.592 172.002 532.482 171.466 532.482 170.852C532.482 169.9 532.72 169.16 533.196 168.631C533.672 168.098 534.332 167.832 535.177 167.832C535.994 167.832 536.642 168.104 537.121 168.647C537.604 169.19 537.845 169.925 537.845 170.852ZM533.398 170.852C533.398 171.597 533.548 172.165 533.846 172.556C534.144 172.946 534.582 173.142 535.161 173.142C535.74 173.142 536.178 172.948 536.477 172.561C536.778 172.171 536.929 171.601 536.929 170.852C536.929 170.11 536.778 169.547 536.477 169.163C536.178 168.776 535.736 168.583 535.151 168.583C534.572 168.583 534.135 168.773 533.84 169.153C533.546 169.533 533.398 170.099 533.398 170.852ZM542.444 173.882C542.064 173.882 541.716 173.813 541.4 173.674C541.087 173.532 540.825 173.316 540.612 173.024H540.548C540.59 173.365 540.612 173.688 540.612 173.994V176.396H539.728V167.938H540.447L540.569 168.737H540.612C540.839 168.418 541.103 168.187 541.405 168.045C541.707 167.903 542.053 167.832 542.444 167.832C543.218 167.832 543.814 168.096 544.233 168.625C544.656 169.154 544.867 169.897 544.867 170.852C544.867 171.81 544.652 172.556 544.223 173.088C543.796 173.617 543.204 173.882 542.444 173.882ZM542.316 168.583C541.719 168.583 541.288 168.748 541.022 169.078C540.756 169.408 540.619 169.934 540.612 170.655V170.852C540.612 171.672 540.748 172.259 541.022 172.614C541.295 172.966 541.734 173.142 542.337 173.142C542.841 173.142 543.236 172.937 543.52 172.529C543.807 172.121 543.951 171.558 543.951 170.841C543.951 170.113 543.807 169.556 543.52 169.169C543.236 168.778 542.834 168.583 542.316 168.583ZM551.782 170.852C551.782 171.803 551.542 172.547 551.063 173.083C550.584 173.616 549.922 173.882 549.077 173.882C548.555 173.882 548.091 173.759 547.687 173.514C547.282 173.269 546.969 172.918 546.749 172.46C546.529 172.002 546.419 171.466 546.419 170.852C546.419 169.9 546.657 169.16 547.133 168.631C547.608 168.098 548.269 167.832 549.114 167.832C549.93 167.832 550.578 168.104 551.058 168.647C551.541 169.19 551.782 169.925 551.782 170.852ZM547.335 170.852C547.335 171.597 547.484 172.165 547.782 172.556C548.081 172.946 548.519 173.142 549.098 173.142C549.677 173.142 550.115 172.948 550.413 172.561C550.715 172.171 550.866 171.601 550.866 170.852C550.866 170.11 550.715 169.547 550.413 169.163C550.115 168.776 549.673 168.583 549.087 168.583C548.509 168.583 548.072 168.773 547.777 169.153C547.482 169.533 547.335 170.099 547.335 170.852ZM557.43 172.183C557.43 172.726 557.227 173.145 556.822 173.44C556.418 173.735 555.85 173.882 555.118 173.882C554.344 173.882 553.741 173.759 553.308 173.514V172.694C553.588 172.836 553.888 172.948 554.208 173.03C554.531 173.111 554.841 173.152 555.14 173.152C555.601 173.152 555.956 173.08 556.205 172.934C556.453 172.785 556.577 172.559 556.577 172.258C556.577 172.03 556.478 171.837 556.279 171.677C556.084 171.514 555.701 171.322 555.129 171.102C554.586 170.9 554.199 170.724 553.968 170.575C553.741 170.422 553.57 170.25 553.457 170.058C553.347 169.866 553.292 169.637 553.292 169.371C553.292 168.895 553.485 168.521 553.872 168.247C554.259 167.97 554.79 167.832 555.464 167.832C556.093 167.832 556.707 167.96 557.307 168.215L556.993 168.934C556.407 168.693 555.876 168.572 555.401 168.572C554.982 168.572 554.666 168.638 554.453 168.769C554.24 168.901 554.133 169.082 554.133 169.312C554.133 169.469 554.172 169.602 554.25 169.712C554.332 169.822 554.461 169.927 554.639 170.026C554.816 170.126 555.157 170.269 555.661 170.457C556.354 170.71 556.821 170.963 557.062 171.219C557.307 171.475 557.43 171.796 557.43 172.183ZM561.666 173.882C560.803 173.882 560.121 173.619 559.621 173.094C559.124 172.568 558.875 171.839 558.875 170.905C558.875 169.964 559.106 169.217 559.568 168.663C560.033 168.109 560.656 167.832 561.437 167.832C562.168 167.832 562.747 168.073 563.173 168.556C563.599 169.036 563.812 169.669 563.812 170.457V171.017H559.791C559.809 171.702 559.981 172.222 560.308 172.577C560.638 172.932 561.101 173.11 561.698 173.11C562.326 173.11 562.948 172.978 563.562 172.716V173.504C563.249 173.639 562.953 173.735 562.672 173.791C562.395 173.852 562.06 173.882 561.666 173.882ZM561.426 168.572C560.958 168.572 560.583 168.725 560.302 169.03C560.026 169.336 559.862 169.758 559.813 170.298H562.864C562.864 169.74 562.74 169.314 562.491 169.02C562.243 168.721 561.888 168.572 561.426 168.572ZM566.578 172.508L566.658 172.63C566.566 172.985 566.433 173.397 566.259 173.866C566.085 174.338 565.904 174.777 565.716 175.181H565.05C565.146 174.812 565.251 174.356 565.364 173.813C565.481 173.269 565.563 172.835 565.609 172.508H566.578ZM578.704 169.872C578.704 170.869 578.504 171.698 578.103 172.359C577.701 173.019 577.135 173.467 576.404 173.701L578.257 175.629H576.942L575.424 173.871L575.131 173.882C573.984 173.882 573.098 173.532 572.473 172.833C571.852 172.13 571.541 171.139 571.541 169.861C571.541 168.594 571.854 167.612 572.479 166.916C573.104 166.216 573.991 165.867 575.142 165.867C576.26 165.867 577.133 166.222 577.762 166.932C578.39 167.642 578.704 168.622 578.704 169.872ZM572.5 169.872C572.5 170.926 572.724 171.727 573.171 172.274C573.622 172.817 574.275 173.088 575.131 173.088C575.994 173.088 576.645 172.817 577.085 172.274C577.526 171.73 577.746 170.93 577.746 169.872C577.746 168.824 577.526 168.031 577.085 167.491C576.649 166.948 576.001 166.676 575.142 166.676C574.279 166.676 573.622 166.95 573.171 167.496C572.724 168.04 572.5 168.831 572.5 169.872ZM581.471 167.938V171.725C581.471 172.201 581.579 172.556 581.796 172.79C582.012 173.024 582.351 173.142 582.813 173.142C583.424 173.142 583.869 172.975 584.15 172.641C584.434 172.307 584.576 171.762 584.576 171.006V167.938H585.46V173.775H584.73L584.602 172.993H584.554C584.373 173.28 584.121 173.5 583.798 173.653C583.479 173.806 583.113 173.882 582.701 173.882C581.991 173.882 581.458 173.713 581.103 173.376C580.752 173.039 580.576 172.499 580.576 171.757V167.938H581.471ZM590.133 173.882C589.27 173.882 588.588 173.619 588.088 173.094C587.591 172.568 587.342 171.839 587.342 170.905C587.342 169.964 587.573 169.217 588.034 168.663C588.499 168.109 589.123 167.832 589.904 167.832C590.635 167.832 591.214 168.073 591.64 168.556C592.066 169.036 592.279 169.669 592.279 170.457V171.017H588.258C588.276 171.702 588.448 172.222 588.775 172.577C589.105 172.932 589.568 173.11 590.165 173.11C590.793 173.11 591.414 172.978 592.029 172.716V173.504C591.716 173.639 591.42 173.735 591.139 173.791C590.862 173.852 590.527 173.882 590.133 173.882ZM589.893 168.572C589.424 168.572 589.05 168.725 588.769 169.03C588.492 169.336 588.329 169.758 588.279 170.298H591.331C591.331 169.74 591.207 169.314 590.958 169.02C590.71 168.721 590.355 168.572 589.893 168.572ZM594.949 167.938V171.725C594.949 172.201 595.058 172.556 595.274 172.79C595.491 173.024 595.83 173.142 596.292 173.142C596.902 173.142 597.348 172.975 597.628 172.641C597.912 172.307 598.054 171.762 598.054 171.006V167.938H598.938V173.775H598.209L598.081 172.993H598.033C597.852 173.28 597.6 173.5 597.277 173.653C596.957 173.806 596.592 173.882 596.18 173.882C595.47 173.882 594.937 173.713 594.582 173.376C594.23 173.039 594.055 172.499 594.055 171.757V167.938H594.949ZM603.611 173.882C602.749 173.882 602.067 173.619 601.566 173.094C601.069 172.568 600.821 171.839 600.821 170.905C600.821 169.964 601.051 169.217 601.513 168.663C601.978 168.109 602.601 167.832 603.382 167.832C604.114 167.832 604.692 168.073 605.118 168.556C605.545 169.036 605.758 169.669 605.758 170.457V171.017H601.737C601.754 171.702 601.927 172.222 602.253 172.577C602.583 172.932 603.047 173.11 603.643 173.11C604.272 173.11 604.893 172.978 605.507 172.716V173.504C605.195 173.639 604.898 173.735 604.618 173.791C604.341 173.852 604.005 173.882 603.611 173.882ZM603.372 168.572C602.903 168.572 602.528 168.725 602.248 169.03C601.971 169.336 601.808 169.758 601.758 170.298H604.81C604.81 169.74 604.685 169.314 604.437 169.02C604.188 168.721 603.833 168.572 603.372 168.572ZM608.524 172.508L608.604 172.63C608.512 172.985 608.378 173.397 608.204 173.866C608.03 174.338 607.849 174.777 607.661 175.181H606.995C607.091 174.812 607.196 174.356 607.31 173.813C607.427 173.269 607.509 172.835 607.555 172.508H608.524ZM618.232 173.775H613.892V165.989H618.232V166.793H614.797V169.302H618.024V170.101H614.797V172.966H618.232V173.775ZM621.563 170.788L619.534 167.938H620.54L622.08 170.175L623.613 167.938H624.609L622.58 170.788L624.716 173.775H623.714L622.08 171.411L620.429 173.775H619.427L621.563 170.788ZM628.67 173.882C627.807 173.882 627.125 173.619 626.625 173.094C626.128 172.568 625.879 171.839 625.879 170.905C625.879 169.964 626.11 169.217 626.571 168.663C627.037 168.109 627.66 167.832 628.441 167.832C629.172 167.832 629.751 168.073 630.177 168.556C630.603 169.036 630.816 169.669 630.816 170.457V171.017H626.795C626.813 171.702 626.985 172.222 627.312 172.577C627.642 172.932 628.105 173.11 628.702 173.11C629.33 173.11 629.951 172.978 630.566 172.716V173.504C630.253 173.639 629.957 173.735 629.676 173.791C629.399 173.852 629.064 173.882 628.67 173.882ZM628.43 168.572C627.961 168.572 627.587 168.725 627.306 169.03C627.029 169.336 626.866 169.758 626.816 170.298H629.868C629.868 169.74 629.744 169.314 629.495 169.02C629.247 168.721 628.892 168.572 628.43 168.572ZM634.988 173.882C634.143 173.882 633.488 173.623 633.023 173.104C632.562 172.582 632.331 171.846 632.331 170.894C632.331 169.918 632.565 169.163 633.034 168.631C633.506 168.098 634.177 167.832 635.047 167.832C635.327 167.832 635.608 167.862 635.888 167.922C636.169 167.983 636.389 168.054 636.549 168.135L636.277 168.886C636.082 168.808 635.869 168.744 635.638 168.695C635.407 168.641 635.203 168.615 635.026 168.615C633.84 168.615 633.247 169.371 633.247 170.884C633.247 171.601 633.391 172.151 633.678 172.535C633.969 172.918 634.399 173.11 634.967 173.11C635.453 173.11 635.952 173.005 636.464 172.795V173.578C636.073 173.781 635.581 173.882 634.988 173.882ZM639.012 167.938V171.725C639.012 172.201 639.12 172.556 639.336 172.79C639.553 173.024 639.892 173.142 640.354 173.142C640.964 173.142 641.41 172.975 641.69 172.641C641.974 172.307 642.116 171.762 642.116 171.006V167.938H643V173.775H642.271L642.143 172.993H642.095C641.914 173.28 641.662 173.5 641.339 173.653C641.019 173.806 640.654 173.882 640.242 173.882C639.532 173.882 638.999 173.713 638.644 173.376C638.293 173.039 638.117 172.499 638.117 171.757V167.938H639.012ZM647.093 173.152C647.249 173.152 647.4 173.142 647.546 173.12C647.691 173.095 647.807 173.071 647.892 173.046V173.722C647.796 173.768 647.654 173.806 647.466 173.834C647.281 173.866 647.114 173.882 646.965 173.882C645.836 173.882 645.272 173.287 645.272 172.098V168.625H644.435V168.199L645.272 167.832L645.644 166.586H646.156V167.938H647.849V168.625H646.156V172.061C646.156 172.412 646.239 172.682 646.406 172.87C646.573 173.058 646.802 173.152 647.093 173.152ZM651.856 173.882C650.994 173.882 650.312 173.619 649.811 173.094C649.314 172.568 649.066 171.839 649.066 170.905C649.066 169.964 649.297 169.217 649.758 168.663C650.223 168.109 650.846 167.832 651.627 167.832C652.359 167.832 652.938 168.073 653.364 168.556C653.79 169.036 654.003 169.669 654.003 170.457V171.017H649.982C650 171.702 650.172 172.222 650.498 172.577C650.829 172.932 651.292 173.11 651.888 173.11C652.517 173.11 653.138 172.978 653.752 172.716V173.504C653.44 173.639 653.144 173.735 652.863 173.791C652.586 173.852 652.251 173.882 651.856 173.882ZM651.617 168.572C651.148 168.572 650.774 168.725 650.493 169.03C650.216 169.336 650.053 169.758 650.003 170.298H653.055C653.055 169.74 652.93 169.314 652.682 169.02C652.433 168.721 652.078 168.572 651.617 168.572Z" fill="#575757"/>
<path d="M213.192 77.1798H215.936L211.578 90H208.614L204.265 77.1798H207.01L209.421 84.8088C209.555 85.2589 209.693 85.7851 209.833 86.3872C209.979 86.9835 210.07 87.3985 210.105 87.6324C210.169 87.0946 210.388 86.1534 210.763 84.8088L213.192 77.1798ZM219.479 85.0806C219.479 86.0511 219.637 86.7847 219.952 87.2816C220.274 87.7785 220.794 88.027 221.513 88.027C222.227 88.027 222.738 87.7815 223.048 87.2904C223.364 86.7935 223.521 86.0569 223.521 85.0806C223.521 84.1102 223.364 83.3824 223.048 82.8972C222.732 82.4119 222.215 82.1693 221.496 82.1693C220.783 82.1693 220.268 82.4119 219.952 82.8972C219.637 83.3765 219.479 84.1043 219.479 85.0806ZM226.257 85.0806C226.257 86.6766 225.836 87.9247 224.995 88.825C224.153 89.7252 222.981 90.1754 221.478 90.1754C220.537 90.1754 219.707 89.9708 218.988 89.5616C218.269 89.1465 217.716 88.5531 217.331 87.7815C216.945 87.0098 216.752 86.1095 216.752 85.0806C216.752 83.4788 217.17 82.2336 218.006 81.3451C218.842 80.4565 220.017 80.0122 221.531 80.0122C222.472 80.0122 223.302 80.2168 224.021 80.626C224.74 81.0352 225.293 81.6227 225.679 82.3886C226.064 83.1544 226.257 84.0517 226.257 85.0806ZM232.597 88.0445C233.065 88.0445 233.626 87.9422 234.281 87.7376V89.7282C233.614 90.0263 232.796 90.1754 231.826 90.1754C230.756 90.1754 229.975 89.9065 229.484 89.3686C228.999 88.825 228.756 88.0124 228.756 86.9309V82.2044H227.476V81.0732L228.949 80.1788L229.721 78.1093H231.431V80.1963H234.176V82.2044H231.431V86.9309C231.431 87.3109 231.536 87.5915 231.747 87.7727C231.963 87.9539 232.247 88.0445 232.597 88.0445ZM236.157 77.6621C236.157 76.791 236.643 76.3555 237.613 76.3555C238.584 76.3555 239.069 76.791 239.069 77.6621C239.069 78.0772 238.946 78.4016 238.7 78.6354C238.461 78.8634 238.098 78.9774 237.613 78.9774C236.643 78.9774 236.157 78.539 236.157 77.6621ZM238.946 90H236.271V80.1963H238.946V90ZM250.81 90H248.136V84.2739C248.136 83.5665 248.01 83.0375 247.759 82.6867C247.507 82.3301 247.107 82.1518 246.557 82.1518C245.809 82.1518 245.268 82.4032 244.935 82.9059C244.602 83.4028 244.435 84.23 244.435 85.3875V90H241.761V80.1963H243.804L244.164 81.4503H244.313C244.611 80.9768 245.02 80.6202 245.54 80.3805C246.066 80.1349 246.663 80.0122 247.329 80.0122C248.469 80.0122 249.334 80.322 249.925 80.9417C250.515 81.5555 250.81 82.4441 250.81 83.6074V90ZM262.096 80.1963V81.5555L260.561 81.9501C260.842 82.3886 260.982 82.8796 260.982 83.4233C260.982 84.4756 260.614 85.2969 259.877 85.8874C259.147 86.472 258.13 86.7643 256.826 86.7643L256.344 86.738L255.949 86.6941C255.674 86.9046 255.537 87.1384 255.537 87.3956C255.537 87.7815 256.028 87.9744 257.01 87.9744H258.676C259.752 87.9744 260.57 88.2053 261.131 88.6671C261.699 89.129 261.982 89.8071 261.982 90.7015C261.982 91.8473 261.503 92.7359 260.544 93.3673C259.591 93.9986 258.22 94.3143 256.431 94.3143C255.063 94.3143 254.017 94.0746 253.292 93.5953C252.573 93.1217 252.213 92.4553 252.213 91.5959C252.213 91.0055 252.398 90.5115 252.766 90.114C253.134 89.7165 253.675 89.4329 254.388 89.2634C254.113 89.1465 253.874 88.9565 253.669 88.6934C253.464 88.4245 253.362 88.141 253.362 87.8428C253.362 87.4687 253.47 87.1589 253.687 86.9133C253.903 86.662 254.216 86.4164 254.625 86.1767C254.11 85.9546 253.701 85.598 253.397 85.1069C253.099 84.6159 252.95 84.0371 252.95 83.3707C252.95 82.3009 253.298 81.4737 253.994 80.8891C254.689 80.3045 255.683 80.0122 256.975 80.0122C257.25 80.0122 257.574 80.0385 257.948 80.0911C258.328 80.1379 258.571 80.1729 258.676 80.1963H262.096ZM254.528 91.3855C254.528 91.7538 254.704 92.0432 255.055 92.2536C255.411 92.4641 255.908 92.5693 256.545 92.5693C257.504 92.5693 258.255 92.4378 258.799 92.1747C259.343 91.9116 259.614 91.5521 259.614 91.0961C259.614 90.7278 259.454 90.4735 259.132 90.3332C258.811 90.1929 258.314 90.1228 257.641 90.1228H256.256C255.765 90.1228 255.353 90.2368 255.019 90.4648C254.692 90.6986 254.528 91.0055 254.528 91.3855ZM255.502 83.4058C255.502 83.9377 255.622 84.3586 255.861 84.6685C256.107 84.9783 256.478 85.1332 256.975 85.1332C257.478 85.1332 257.846 84.9783 258.08 84.6685C258.314 84.3586 258.431 83.9377 258.431 83.4058C258.431 82.2249 257.945 81.6344 256.975 81.6344C255.993 81.6344 255.502 82.2249 255.502 83.4058ZM271.312 82.8708H272.189C273.048 82.8708 273.683 82.7276 274.092 82.4412C274.501 82.1547 274.706 81.7046 274.706 81.0908C274.706 80.4828 274.495 80.0502 274.074 79.7929C273.659 79.5357 273.013 79.4071 272.136 79.4071H271.312V82.8708ZM271.312 85.0806V90H268.594V77.1798H272.329C274.071 77.1798 275.361 77.4984 276.196 78.1356C277.032 78.767 277.45 79.7286 277.45 81.0206C277.45 81.7747 277.243 82.447 276.828 83.0375C276.413 83.6221 275.825 84.081 275.065 84.4142C276.994 87.2962 278.251 89.1582 278.836 90H275.819L272.759 85.0806H271.312ZM282.37 85.0806C282.37 86.0511 282.528 86.7847 282.843 87.2816C283.165 87.7785 283.685 88.027 284.404 88.027C285.117 88.027 285.629 87.7815 285.939 87.2904C286.254 86.7935 286.412 86.0569 286.412 85.0806C286.412 84.1102 286.254 83.3824 285.939 82.8972C285.623 82.4119 285.106 82.1693 284.387 82.1693C283.673 82.1693 283.159 82.4119 282.843 82.8972C282.528 83.3765 282.37 84.1043 282.37 85.0806ZM289.148 85.0806C289.148 86.6766 288.727 87.9247 287.885 88.825C287.044 89.7252 285.872 90.1754 284.369 90.1754C283.428 90.1754 282.598 89.9708 281.879 89.5616C281.16 89.1465 280.607 88.5531 280.221 87.7815C279.836 87.0098 279.643 86.1095 279.643 85.0806C279.643 83.4788 280.061 82.2336 280.897 81.3451C281.733 80.4565 282.908 80.0122 284.422 80.0122C285.363 80.0122 286.193 80.2168 286.912 80.626C287.631 81.0352 288.184 81.6227 288.569 82.3886C288.955 83.1544 289.148 84.0517 289.148 85.0806ZM294.033 90H291.358V76.3555H294.033V90ZM299.522 90H296.847V76.3555H299.522V90ZM309.282 90L308.922 88.746H308.782C308.495 89.202 308.089 89.5557 307.563 89.8071C307.037 90.0526 306.438 90.1754 305.765 90.1754C304.614 90.1754 303.746 89.8685 303.161 89.2546C302.576 88.635 302.284 87.7464 302.284 86.5889V80.1963H304.959V85.9224C304.959 86.6298 305.084 87.1618 305.336 87.5184C305.587 87.8691 305.988 88.0445 306.537 88.0445C307.285 88.0445 307.826 87.7961 308.159 87.2992C308.493 86.7964 308.659 85.9663 308.659 84.8088V80.1963H311.334V90H309.282ZM319.524 90.1754C318.372 90.1754 317.469 89.7574 316.814 88.9214H316.674C316.767 89.7399 316.814 90.2134 316.814 90.342V94.3143H314.14V80.1963H316.314L316.691 81.4678H316.814C317.44 80.4974 318.366 80.0122 319.594 80.0122C320.752 80.0122 321.658 80.4594 322.312 81.3538C322.967 82.2483 323.295 83.4905 323.295 85.0806C323.295 86.127 323.14 87.0361 322.83 87.8078C322.526 88.5794 322.09 89.167 321.523 89.5703C320.956 89.9737 320.29 90.1754 319.524 90.1754ZM318.735 82.1518C318.074 82.1518 317.592 82.3564 317.288 82.7656C316.984 83.169 316.826 83.8384 316.814 84.7737V85.0631C316.814 86.1154 316.969 86.8695 317.279 87.3255C317.595 87.7815 318.092 88.0094 318.77 88.0094C319.968 88.0094 320.567 87.0215 320.567 85.0455C320.567 84.081 320.418 83.359 320.12 82.8796C319.828 82.3944 319.366 82.1518 318.735 82.1518Z" fill="black"/>
<path d="M243.877 122.26C243.877 119.595 246.038 117.434 248.704 117.434H321.456C324.122 117.434 326.283 119.595 326.283 122.26V185.825C326.283 188.49 324.122 190.651 321.456 190.651H248.704C246.038 190.651 243.877 188.49 243.877 185.825V122.26Z" fill="white" stroke="#D1D1D1" stroke-width="1.12041"/>
<circle cx="257.823" cy="136.602" r="5.60197" fill="#A7A4A4"/>
<rect x="270.991" y="134.102" width="44" height="5" rx="2.42247" fill="#A7A4A4"/>
<circle cx="257.823" cy="153" r="5.60197" fill="#A7A4A4"/>
<rect x="270.991" y="151" width="44" height="4" rx="2" fill="#A7A4A4"/>
<circle cx="257.823" cy="169.398" r="5.60197" fill="#A7A4A4"/>
<rect x="270.991" y="166.898" width="44" height="5" rx="2.42247" fill="#A7A4A4"/>
<circle cx="45.9193" cy="129.036" r="15.9193" fill="#EEEEEE"/>
<path d="M45.4892 128.605C46.2337 128.605 46.9616 128.384 47.5807 127.971C48.1998 127.557 48.6824 126.969 48.9673 126.281C49.2522 125.593 49.3268 124.836 49.1815 124.106C49.0363 123.376 48.6777 122.705 48.1512 122.178C47.6247 121.652 46.9539 121.293 46.2236 121.148C45.4933 121.003 44.7364 121.077 44.0485 121.362C43.3606 121.647 42.7726 122.13 42.3589 122.749C41.9452 123.368 41.7245 124.096 41.7245 124.84C41.7245 125.839 42.1211 126.796 42.8271 127.502C43.5331 128.208 44.4907 128.605 45.4892 128.605ZM45.4892 129.681C43.1557 129.681 38.4976 131.122 38.4976 133.983V136.135H52.4808V133.983C52.4808 131.122 47.8226 129.681 45.4892 129.681Z" fill="#4D4D4D"/>
<path d="M206.352 129.718C206.688 130.054 206.688 130.599 206.352 130.935L200.876 136.411C200.54 136.747 199.995 136.747 199.659 136.411C199.323 136.075 199.323 135.53 199.659 135.194L204.527 130.327L199.659 125.459C199.323 125.123 199.323 124.578 199.659 124.242C199.995 123.906 200.54 123.906 200.876 124.242L206.352 129.718ZM68.9188 129.466H205.743V131.187H68.9188V129.466Z" fill="#DEDEDE"/>
<g opacity="0.78">
<rect width="87.1901" height="30.9782" transform="translate(88.7104 113.977)" fill="white"/>
<path d="M103.522 129.94C103.522 130.8 103.305 131.472 102.872 131.956C102.439 132.438 101.84 132.678 101.077 132.678C100.605 132.678 100.186 132.568 99.8206 132.346C99.4548 132.125 99.1725 131.807 98.9735 131.393C98.7746 130.979 98.6751 130.495 98.6751 129.94C98.6751 129.08 98.8901 128.411 99.3201 127.933C99.75 127.451 100.347 127.211 101.111 127.211C101.848 127.211 102.434 127.456 102.867 127.947C103.304 128.438 103.522 129.102 103.522 129.94ZM99.503 129.94C99.503 130.614 99.6377 131.127 99.9073 131.48C100.177 131.833 100.573 132.009 101.096 132.009C101.619 132.009 102.015 131.834 102.285 131.485C102.558 131.132 102.694 130.617 102.694 129.94C102.694 129.269 102.558 128.761 102.285 128.414C102.015 128.064 101.616 127.889 101.086 127.889C100.563 127.889 100.169 128.061 99.9024 128.404C99.6361 128.748 99.503 129.259 99.503 129.94ZM109.03 132.582V129.17C109.03 128.74 108.932 128.419 108.736 128.207C108.54 127.995 108.234 127.889 107.817 127.889C107.265 127.889 106.861 128.039 106.604 128.337C106.347 128.635 106.219 129.128 106.219 129.815V132.582H105.42V127.307H106.07L106.2 128.029H106.238C106.402 127.769 106.631 127.568 106.927 127.427C107.222 127.283 107.551 127.211 107.913 127.211C108.549 127.211 109.027 127.365 109.347 127.673C109.668 127.978 109.829 128.467 109.829 129.141V132.582H109.03ZM111.525 130.305V129.574H113.888V130.305H111.525ZM117.745 132.678C116.982 132.678 116.39 132.444 115.969 131.976C115.552 131.504 115.343 130.838 115.343 129.978C115.343 129.096 115.555 128.414 115.979 127.933C116.406 127.451 117.012 127.211 117.798 127.211C118.052 127.211 118.305 127.238 118.559 127.293C118.812 127.347 119.011 127.411 119.155 127.485L118.91 128.164C118.733 128.093 118.541 128.035 118.332 127.99C118.124 127.942 117.939 127.918 117.779 127.918C116.707 127.918 116.171 128.602 116.171 129.969C116.171 130.617 116.301 131.114 116.561 131.461C116.824 131.807 117.213 131.98 117.726 131.98C118.166 131.98 118.616 131.886 119.078 131.696V132.404C118.725 132.587 118.281 132.678 117.745 132.678ZM124.437 132.582V129.17C124.437 128.74 124.339 128.419 124.144 128.207C123.948 127.995 123.641 127.889 123.224 127.889C122.669 127.889 122.263 128.04 122.007 128.342C121.753 128.643 121.626 129.138 121.626 129.824V132.582H120.827V125.093H121.626V127.36C121.626 127.633 121.614 127.859 121.588 128.039H121.636C121.793 127.785 122.016 127.586 122.305 127.442C122.597 127.294 122.929 127.22 123.301 127.22C123.946 127.22 124.429 127.374 124.75 127.682C125.074 127.987 125.236 128.473 125.236 129.141V132.582H124.437ZM130.619 132.582L130.46 131.831H130.422C130.159 132.162 129.895 132.386 129.632 132.505C129.372 132.621 129.047 132.678 128.655 132.678C128.132 132.678 127.722 132.544 127.423 132.274C127.128 132.004 126.98 131.621 126.98 131.124C126.98 130.058 127.832 129.5 129.536 129.449L130.431 129.42V129.093C130.431 128.679 130.341 128.374 130.162 128.178C129.985 127.979 129.701 127.88 129.31 127.88C128.87 127.88 128.373 128.015 127.818 128.284L127.572 127.673C127.832 127.532 128.116 127.421 128.424 127.341C128.735 127.26 129.047 127.22 129.358 127.22C129.987 127.22 130.452 127.36 130.754 127.639C131.059 127.918 131.211 128.366 131.211 128.982V132.582H130.619ZM128.814 132.019C129.311 132.019 129.701 131.883 129.984 131.61C130.269 131.337 130.412 130.955 130.412 130.464V129.988L129.613 130.022C128.978 130.044 128.519 130.143 128.237 130.32C127.957 130.493 127.818 130.764 127.818 131.133C127.818 131.422 127.904 131.642 128.078 131.793C128.254 131.944 128.5 132.019 128.814 132.019ZM134.154 132.582H133.355V127.307H134.154V132.582ZM133.287 125.878C133.287 125.695 133.332 125.561 133.422 125.478C133.512 125.391 133.624 125.348 133.759 125.348C133.887 125.348 133.998 125.391 134.091 125.478C134.184 125.565 134.231 125.698 134.231 125.878C134.231 126.057 134.184 126.192 134.091 126.282C133.998 126.368 133.887 126.412 133.759 126.412C133.624 126.412 133.512 126.368 133.422 126.282C133.332 126.192 133.287 126.057 133.287 125.878ZM139.95 132.582V129.17C139.95 128.74 139.853 128.419 139.657 128.207C139.461 127.995 139.155 127.889 138.738 127.889C138.186 127.889 137.781 128.039 137.525 128.337C137.268 128.635 137.14 129.128 137.14 129.815V132.582H136.341V127.307H136.99L137.12 128.029H137.159C137.322 127.769 137.552 127.568 137.847 127.427C138.142 127.283 138.471 127.211 138.834 127.211C139.469 127.211 139.947 127.365 140.268 127.673C140.589 127.978 140.749 128.467 140.749 129.141V132.582H139.95ZM147.097 132.582L145.095 127.307H145.951L147.087 130.435C147.344 131.167 147.495 131.642 147.54 131.86H147.578C147.613 131.69 147.724 131.339 147.91 130.806C148.099 130.27 148.521 129.104 149.176 127.307H150.033L148.03 132.582H147.097ZM155.926 129.94C155.926 130.8 155.709 131.472 155.276 131.956C154.843 132.438 154.244 132.678 153.481 132.678C153.009 132.678 152.59 132.568 152.224 132.346C151.859 132.125 151.576 131.807 151.377 131.393C151.178 130.979 151.079 130.495 151.079 129.94C151.079 129.08 151.294 128.411 151.724 127.933C152.154 127.451 152.751 127.211 153.514 127.211C154.252 127.211 154.838 127.456 155.271 127.947C155.707 128.438 155.926 129.102 155.926 129.94ZM151.907 129.94C151.907 130.614 152.042 131.127 152.311 131.48C152.581 131.833 152.977 132.009 153.5 132.009C154.023 132.009 154.419 131.834 154.689 131.485C154.961 131.132 155.098 130.617 155.098 129.94C155.098 129.269 154.961 128.761 154.689 128.414C154.419 128.064 154.02 127.889 153.49 127.889C152.967 127.889 152.573 128.061 152.306 128.404C152.04 128.748 151.907 129.259 151.907 129.94ZM159.528 132.019C159.669 132.019 159.805 132.009 159.937 131.99C160.068 131.968 160.173 131.945 160.25 131.923V132.534C160.163 132.576 160.035 132.609 159.865 132.635C159.698 132.664 159.547 132.678 159.412 132.678C158.392 132.678 157.882 132.141 157.882 131.066V127.928H157.126V127.543L157.882 127.211L158.219 126.084H158.681V127.307H160.211V127.928H158.681V131.032C158.681 131.35 158.756 131.594 158.907 131.764C159.058 131.934 159.265 132.019 159.528 132.019ZM164.03 132.678C163.25 132.678 162.634 132.441 162.182 131.966C161.732 131.491 161.508 130.832 161.508 129.988C161.508 129.138 161.716 128.462 162.133 127.962C162.554 127.461 163.117 127.211 163.823 127.211C164.484 127.211 165.007 127.429 165.392 127.865C165.777 128.298 165.969 128.871 165.969 129.584V130.089H162.336C162.352 130.708 162.507 131.178 162.802 131.499C163.101 131.82 163.52 131.98 164.059 131.98C164.627 131.98 165.188 131.862 165.743 131.624V132.337C165.461 132.458 165.193 132.545 164.939 132.596C164.689 132.651 164.386 132.678 164.03 132.678ZM163.813 127.88C163.39 127.88 163.051 128.018 162.798 128.294C162.547 128.57 162.4 128.951 162.355 129.439H165.113C165.113 128.935 165 128.55 164.776 128.284C164.551 128.015 164.23 127.88 163.813 127.88Z" fill="black"/>
</g>
<circle cx="45.9193" cy="177.035" r="15.9193" fill="#EEEEEE"/>
<path d="M45.4892 176.605C46.2337 176.605 46.9616 176.384 47.5807 175.97C48.1998 175.556 48.6824 174.969 48.9673 174.281C49.2522 173.593 49.3268 172.836 49.1815 172.105C49.0363 171.375 48.6777 170.704 48.1512 170.178C47.6247 169.651 46.9539 169.293 46.2236 169.148C45.4933 169.002 44.7364 169.077 44.0485 169.362C43.3606 169.647 42.7726 170.129 42.3589 170.748C41.9452 171.367 41.7245 172.095 41.7245 172.84C41.7245 173.838 42.1211 174.796 42.8271 175.502C43.5331 176.208 44.4907 176.605 45.4892 176.605ZM45.4892 177.68C43.1557 177.68 38.4976 179.122 38.4976 181.983V184.134H52.4808V181.983C52.4808 179.122 47.8226 177.68 45.4892 177.68Z" fill="#4D4D4D"/>
<path d="M206.352 176.856C206.688 177.192 206.688 177.737 206.352 178.073L200.876 183.55C200.54 183.886 199.995 183.886 199.659 183.55C199.323 183.213 199.323 182.669 199.659 182.333L204.527 177.465L199.659 172.597C199.323 172.261 199.323 171.716 199.659 171.38C199.995 171.044 200.54 171.044 200.876 171.38L206.352 176.856ZM68.9188 176.604H205.743V178.325H68.9188V176.604Z" fill="#DEDEDE"/>
<g opacity="0.78">
<rect width="87.1901" height="30.9782" transform="translate(88.7104 161.116)" fill="white"/>
<path d="M103.522 177.078C103.522 177.938 103.305 178.611 102.872 179.095C102.439 179.576 101.84 179.817 101.077 179.817C100.605 179.817 100.186 179.706 99.8206 179.485C99.4548 179.263 99.1725 178.946 98.9735 178.532C98.7746 178.118 98.6751 177.633 98.6751 177.078C98.6751 176.218 98.8901 175.549 99.3201 175.071C99.75 174.59 100.347 174.349 101.111 174.349C101.848 174.349 102.434 174.595 102.867 175.086C103.304 175.577 103.522 176.241 103.522 177.078ZM99.503 177.078C99.503 177.752 99.6377 178.266 99.9073 178.619C100.177 178.971 100.573 179.148 101.096 179.148C101.619 179.148 102.015 178.973 102.285 178.623C102.558 178.27 102.694 177.755 102.694 177.078C102.694 176.408 102.558 175.899 102.285 175.553C102.015 175.203 101.616 175.028 101.086 175.028C100.563 175.028 100.169 175.2 99.9024 175.543C99.6361 175.886 99.503 176.398 99.503 177.078ZM109.03 179.721V176.308C109.03 175.878 108.932 175.557 108.736 175.346C108.54 175.134 108.234 175.028 107.817 175.028C107.265 175.028 106.861 175.177 106.604 175.476C106.347 175.774 106.219 176.267 106.219 176.953V179.721H105.42V174.446H106.07L106.2 175.168H106.238C106.402 174.908 106.631 174.707 106.927 174.566C107.222 174.422 107.551 174.349 107.913 174.349C108.549 174.349 109.027 174.503 109.347 174.811C109.668 175.116 109.829 175.606 109.829 176.279V179.721H109.03ZM111.525 177.444V176.713H113.888V177.444H111.525ZM117.745 179.817C116.982 179.817 116.39 179.583 115.969 179.114C115.552 178.643 115.343 177.977 115.343 177.117C115.343 176.234 115.555 175.553 115.979 175.071C116.406 174.59 117.012 174.349 117.798 174.349C118.052 174.349 118.305 174.377 118.559 174.431C118.812 174.486 119.011 174.55 119.155 174.624L118.91 175.302C118.733 175.232 118.541 175.174 118.332 175.129C118.124 175.081 117.939 175.057 117.779 175.057C116.707 175.057 116.171 175.74 116.171 177.107C116.171 177.755 116.301 178.253 116.561 178.599C116.824 178.946 117.213 179.119 117.726 179.119C118.166 179.119 118.616 179.024 119.078 178.835V179.543C118.725 179.726 118.281 179.817 117.745 179.817ZM124.437 179.721V176.308C124.437 175.878 124.339 175.557 124.144 175.346C123.948 175.134 123.641 175.028 123.224 175.028C122.669 175.028 122.263 175.179 122.007 175.48C121.753 175.782 121.626 176.276 121.626 176.963V179.721H120.827V172.232H121.626V174.499C121.626 174.771 121.614 174.998 121.588 175.177H121.636C121.793 174.924 122.016 174.725 122.305 174.58C122.597 174.433 122.929 174.359 123.301 174.359C123.946 174.359 124.429 174.513 124.75 174.821C125.074 175.126 125.236 175.612 125.236 176.279V179.721H124.437ZM130.619 179.721L130.46 178.97H130.422C130.159 179.3 129.895 179.525 129.632 179.644C129.372 179.759 129.047 179.817 128.655 179.817C128.132 179.817 127.722 179.682 127.423 179.413C127.128 179.143 126.98 178.76 126.98 178.262C126.98 177.197 127.832 176.639 129.536 176.587L130.431 176.559V176.231C130.431 175.817 130.341 175.513 130.162 175.317C129.985 175.118 129.701 175.018 129.31 175.018C128.87 175.018 128.373 175.153 127.818 175.423L127.572 174.811C127.832 174.67 128.116 174.56 128.424 174.479C128.735 174.399 129.047 174.359 129.358 174.359C129.987 174.359 130.452 174.499 130.754 174.778C131.059 175.057 131.211 175.505 131.211 176.121V179.721H130.619ZM128.814 179.158C129.311 179.158 129.701 179.021 129.984 178.748C130.269 178.476 130.412 178.094 130.412 177.603V177.127L129.613 177.16C128.978 177.183 128.519 177.282 128.237 177.459C127.957 177.632 127.818 177.903 127.818 178.272C127.818 178.561 127.904 178.781 128.078 178.931C128.254 179.082 128.5 179.158 128.814 179.158ZM134.154 179.721H133.355V174.446H134.154V179.721ZM133.287 173.016C133.287 172.833 133.332 172.7 133.422 172.617C133.512 172.53 133.624 172.487 133.759 172.487C133.887 172.487 133.998 172.53 134.091 172.617C134.184 172.703 134.231 172.837 134.231 173.016C134.231 173.196 134.184 173.331 134.091 173.42C133.998 173.507 133.887 173.55 133.759 173.55C133.624 173.55 133.512 173.507 133.422 173.42C133.332 173.331 133.287 173.196 133.287 173.016ZM139.95 179.721V176.308C139.95 175.878 139.853 175.557 139.657 175.346C139.461 175.134 139.155 175.028 138.738 175.028C138.186 175.028 137.781 175.177 137.525 175.476C137.268 175.774 137.14 176.267 137.14 176.953V179.721H136.341V174.446H136.99L137.12 175.168H137.159C137.322 174.908 137.552 174.707 137.847 174.566C138.142 174.422 138.471 174.349 138.834 174.349C139.469 174.349 139.947 174.503 140.268 174.811C140.589 175.116 140.749 175.606 140.749 176.279V179.721H139.95ZM147.097 179.721L145.095 174.446H145.951L147.087 177.574C147.344 178.306 147.495 178.781 147.54 178.999H147.578C147.613 178.829 147.724 178.477 147.91 177.945C148.099 177.409 148.521 176.243 149.176 174.446H150.033L148.03 179.721H147.097ZM155.926 177.078C155.926 177.938 155.709 178.611 155.276 179.095C154.843 179.576 154.244 179.817 153.481 179.817C153.009 179.817 152.59 179.706 152.224 179.485C151.859 179.263 151.576 178.946 151.377 178.532C151.178 178.118 151.079 177.633 151.079 177.078C151.079 176.218 151.294 175.549 151.724 175.071C152.154 174.59 152.751 174.349 153.514 174.349C154.252 174.349 154.838 174.595 155.271 175.086C155.707 175.577 155.926 176.241 155.926 177.078ZM151.907 177.078C151.907 177.752 152.042 178.266 152.311 178.619C152.581 178.971 152.977 179.148 153.5 179.148C154.023 179.148 154.419 178.973 154.689 178.623C154.961 178.27 155.098 177.755 155.098 177.078C155.098 176.408 154.961 175.899 154.689 175.553C154.419 175.203 154.02 175.028 153.49 175.028C152.967 175.028 152.573 175.2 152.306 175.543C152.04 175.886 151.907 176.398 151.907 177.078ZM159.528 179.158C159.669 179.158 159.805 179.148 159.937 179.129C160.068 179.106 160.173 179.084 160.25 179.061V179.673C160.163 179.714 160.035 179.748 159.865 179.774C159.698 179.803 159.547 179.817 159.412 179.817C158.392 179.817 157.882 179.28 157.882 178.205V175.067H157.126V174.682L157.882 174.349L158.219 173.223H158.681V174.446H160.211V175.067H158.681V178.171C158.681 178.489 158.756 178.732 158.907 178.902C159.058 179.073 159.265 179.158 159.528 179.158ZM164.03 179.817C163.25 179.817 162.634 179.58 162.182 179.105C161.732 178.63 161.508 177.97 161.508 177.127C161.508 176.276 161.716 175.601 162.133 175.1C162.554 174.6 163.117 174.349 163.823 174.349C164.484 174.349 165.007 174.568 165.392 175.004C165.777 175.437 165.969 176.01 165.969 176.722V177.228H162.336C162.352 177.847 162.507 178.317 162.802 178.638C163.101 178.959 163.52 179.119 164.059 179.119C164.627 179.119 165.188 179 165.743 178.763V179.475C165.461 179.597 165.193 179.684 164.939 179.735C164.689 179.79 164.386 179.817 164.03 179.817ZM163.813 175.018C163.39 175.018 163.051 175.156 162.798 175.432C162.547 175.708 162.4 176.09 162.355 176.578H165.113C165.113 176.074 165 175.689 164.776 175.423C164.551 175.153 164.23 175.018 163.813 175.018Z" fill="black"/>
</g>
<path d="M519.454 85.2128H520.349C521.184 85.2128 521.81 85.0491 522.225 84.7218C522.64 84.3886 522.848 83.9063 522.848 83.2749C522.848 82.6377 522.672 82.1671 522.322 81.8631C521.977 81.5591 521.433 81.4071 520.69 81.4071H519.454V85.2128ZM525.592 83.1784C525.592 84.5581 525.16 85.6133 524.295 86.344C523.435 87.0748 522.21 87.4401 520.62 87.4401H519.454V92H516.736V79.1798H520.831C522.386 79.1798 523.567 79.5159 524.373 80.1882C525.186 80.8547 525.592 81.8514 525.592 83.1784ZM533.274 82.0122C533.636 82.0122 533.937 82.0385 534.177 82.0911L533.975 84.599C533.759 84.5405 533.496 84.5113 533.186 84.5113C532.333 84.5113 531.666 84.7305 531.187 85.169C530.713 85.6074 530.477 86.2213 530.477 87.0105V92H527.802V82.1963H529.828L530.222 83.8449H530.354C530.658 83.2954 531.067 82.854 531.582 82.5208C532.102 82.1817 532.666 82.0122 533.274 82.0122ZM538.088 87.0806C538.088 88.0511 538.246 88.7847 538.562 89.2816C538.883 89.7785 539.403 90.027 540.122 90.027C540.836 90.027 541.347 89.7815 541.657 89.2904C541.973 88.7935 542.131 88.0569 542.131 87.0806C542.131 86.1102 541.973 85.3824 541.657 84.8972C541.341 84.4119 540.824 84.1693 540.105 84.1693C539.392 84.1693 538.877 84.4119 538.562 84.8972C538.246 85.3765 538.088 86.1043 538.088 87.0806ZM544.866 87.0806C544.866 88.6766 544.446 89.9247 543.604 90.825C542.762 91.7252 541.59 92.1754 540.087 92.1754C539.146 92.1754 538.316 91.9708 537.597 91.5616C536.878 91.1465 536.326 90.5531 535.94 89.7815C535.554 89.0098 535.361 88.1095 535.361 87.0806C535.361 85.4788 535.779 84.2336 536.615 83.3451C537.451 82.4565 538.626 82.0122 540.14 82.0122C541.081 82.0122 541.911 82.2168 542.63 82.626C543.349 83.0352 543.902 83.6227 544.288 84.3886C544.674 85.1544 544.866 86.0517 544.866 87.0806ZM552.46 92.1754C551.309 92.1754 550.406 91.7574 549.751 90.9214H549.61C549.704 91.7399 549.751 92.2134 549.751 92.342V96.3143H547.076V82.1963H549.251L549.628 83.4678H549.751C550.376 82.4974 551.303 82.0122 552.531 82.0122C553.688 82.0122 554.594 82.4594 555.249 83.3538C555.904 84.2483 556.231 85.4905 556.231 87.0806C556.231 88.127 556.076 89.0361 555.766 89.8078C555.462 90.5794 555.027 91.167 554.46 91.5703C553.893 91.9737 553.226 92.1754 552.46 92.1754ZM551.671 84.1518C551.011 84.1518 550.528 84.3564 550.224 84.7656C549.92 85.169 549.762 85.8384 549.751 86.7737V87.0631C549.751 88.1154 549.906 88.8695 550.216 89.3255C550.531 89.7815 551.028 90.0094 551.706 90.0094C552.905 90.0094 553.504 89.0215 553.504 87.0455C553.504 86.081 553.355 85.359 553.057 84.8796C552.764 84.3944 552.303 84.1518 551.671 84.1518ZM560.572 87.0806C560.572 88.0511 560.73 88.7847 561.045 89.2816C561.367 89.7785 561.887 90.027 562.606 90.027C563.319 90.027 563.831 89.7815 564.141 89.2904C564.456 88.7935 564.614 88.0569 564.614 87.0806C564.614 86.1102 564.456 85.3824 564.141 84.8972C563.825 84.4119 563.308 84.1693 562.589 84.1693C561.875 84.1693 561.361 84.4119 561.045 84.8972C560.73 85.3765 560.572 86.1043 560.572 87.0806ZM567.35 87.0806C567.35 88.6766 566.929 89.9247 566.087 90.825C565.246 91.7252 564.073 92.1754 562.571 92.1754C561.63 92.1754 560.8 91.9708 560.081 91.5616C559.362 91.1465 558.809 90.5531 558.423 89.7815C558.037 89.0098 557.845 88.1095 557.845 87.0806C557.845 85.4788 558.263 84.2336 559.098 83.3451C559.934 82.4565 561.109 82.0122 562.624 82.0122C563.565 82.0122 564.395 82.2168 565.114 82.626C565.833 83.0352 566.385 83.6227 566.771 84.3886C567.157 85.1544 567.35 86.0517 567.35 87.0806ZM576.4 89.0887C576.4 90.0942 576.049 90.86 575.347 91.3862C574.652 91.9123 573.608 92.1754 572.217 92.1754C571.504 92.1754 570.896 92.1257 570.393 92.0263C569.89 91.9328 569.42 91.7925 568.981 91.6054V89.3956C569.478 89.6295 570.036 89.8253 570.656 89.9831C571.281 90.141 571.831 90.2199 572.305 90.2199C573.275 90.2199 573.76 89.9393 573.76 89.3781C573.76 89.1676 573.696 88.9981 573.567 88.8695C573.439 88.735 573.216 88.586 572.901 88.4223C572.585 88.2527 572.164 88.0569 571.638 87.8348C570.884 87.5191 570.329 87.2268 569.972 86.9579C569.621 86.6889 569.364 86.382 569.2 86.0371C569.042 85.6864 568.964 85.2567 568.964 84.7481C568.964 83.877 569.3 83.2047 569.972 82.7312C570.65 82.2519 571.609 82.0122 572.848 82.0122C574.029 82.0122 575.178 82.2694 576.294 82.7838L575.488 84.713C574.997 84.5026 574.538 84.3301 574.111 84.1956C573.684 84.0612 573.249 83.994 572.804 83.994C572.015 83.994 571.621 84.2073 571.621 84.6341C571.621 84.8738 571.746 85.0813 571.998 85.2567C572.255 85.4321 572.813 85.6922 573.672 86.0371C574.438 86.347 575 86.6363 575.356 86.9052C575.713 87.1742 575.976 87.484 576.145 87.8348C576.315 88.1855 576.4 88.6035 576.4 89.0887ZM584.713 92L584.195 90.6671H584.125C583.675 91.2342 583.21 91.6288 582.731 91.8509C582.257 92.0672 581.638 92.1754 580.872 92.1754C579.931 92.1754 579.188 91.9065 578.644 91.3686C578.107 90.8308 577.838 90.065 577.838 89.0712C577.838 88.0306 578.2 87.2648 578.925 86.7737C579.656 86.2768 580.755 86.002 582.222 85.9494L583.923 85.8968V85.4671C583.923 84.4733 583.415 83.9764 582.398 83.9764C581.614 83.9764 580.693 84.2132 579.635 84.6867L578.75 82.8803C579.878 82.2899 581.129 81.9946 582.503 81.9946C583.818 81.9946 584.827 82.2811 585.528 82.854C586.23 83.4269 586.58 84.2979 586.58 85.4671V92H584.713ZM583.923 87.4577L582.889 87.4928C582.111 87.5161 581.532 87.6564 581.152 87.9137C580.772 88.1709 580.582 88.5626 580.582 89.0887C580.582 89.8428 581.015 90.2199 581.88 90.2199C582.5 90.2199 582.994 90.0416 583.362 89.685C583.736 89.3284 583.923 88.8549 583.923 88.2644V87.4577ZM592.017 92H589.343V78.3555H592.017V92ZM608.275 92H605.6V86.2739C605.6 85.5665 605.48 85.0375 605.241 84.6867C605.007 84.3301 604.636 84.1518 604.127 84.1518C603.443 84.1518 602.946 84.4032 602.636 84.9059C602.326 85.4087 602.172 86.2359 602.172 87.3875V92H599.497V82.1963H601.54L601.9 83.4503H602.049C602.312 83.0001 602.692 82.6494 603.189 82.398C603.686 82.1408 604.256 82.0122 604.899 82.0122C606.366 82.0122 607.36 82.4915 607.88 83.4503H608.117C608.38 82.9943 608.766 82.6406 609.274 82.3892C609.789 82.1379 610.368 82.0122 611.011 82.0122C612.121 82.0122 612.96 82.2986 613.527 82.8715C614.1 83.4386 614.387 84.3506 614.387 85.6074V92H611.703V86.2739C611.703 85.5665 611.584 85.0375 611.344 84.6867C611.11 84.3301 610.739 84.1518 610.23 84.1518C609.575 84.1518 609.084 84.3856 608.757 84.8533C608.435 85.321 608.275 86.0634 608.275 87.0806V92ZM623.366 92L622.849 90.6671H622.779C622.328 91.2342 621.864 91.6288 621.384 91.8509C620.911 92.0672 620.291 92.1754 619.525 92.1754C618.584 92.1754 617.842 91.9065 617.298 91.3686C616.76 90.8308 616.491 90.065 616.491 89.0712C616.491 88.0306 616.854 87.2648 617.579 86.7737C618.309 86.2768 619.408 86.002 620.876 85.9494L622.577 85.8968V85.4671C622.577 84.4733 622.068 83.9764 621.051 83.9764C620.268 83.9764 619.347 84.2132 618.289 84.6867L617.403 82.8803C618.531 82.2899 619.783 81.9946 621.156 81.9946C622.472 81.9946 623.48 82.2811 624.182 82.854C624.883 83.4269 625.234 84.2979 625.234 85.4671V92H623.366ZM622.577 87.4577L621.542 87.4928C620.765 87.5161 620.186 87.6564 619.806 87.9137C619.426 88.1709 619.236 88.5626 619.236 89.0887C619.236 89.8428 619.669 90.2199 620.534 90.2199C621.153 90.2199 621.647 90.0416 622.016 89.685C622.39 89.3284 622.577 88.8549 622.577 88.2644V87.4577ZM637.046 92H634.371V86.2739C634.371 85.5665 634.245 85.0375 633.994 84.6867C633.743 84.3301 633.342 84.1518 632.793 84.1518C632.044 84.1518 631.504 84.4032 631.17 84.9059C630.837 85.4028 630.671 86.23 630.671 87.3875V92H627.996V82.1963H630.039L630.399 83.4503H630.548C630.846 82.9768 631.255 82.6202 631.776 82.3805C632.302 82.1349 632.898 82.0122 633.564 82.0122C634.704 82.0122 635.57 82.322 636.16 82.9417C636.75 83.5555 637.046 84.4441 637.046 85.6074V92ZM646.025 92L645.508 90.6671H645.438C644.987 91.2342 644.523 91.6288 644.043 91.8509C643.57 92.0672 642.95 92.1754 642.184 92.1754C641.243 92.1754 640.501 91.9065 639.957 91.3686C639.419 90.8308 639.15 90.065 639.15 89.0712C639.15 88.0306 639.513 87.2648 640.238 86.7737C640.968 86.2768 642.067 86.002 643.535 85.9494L645.236 85.8968V85.4671C645.236 84.4733 644.727 83.9764 643.71 83.9764C642.927 83.9764 642.006 84.2132 640.948 84.6867L640.062 82.8803C641.19 82.2899 642.441 81.9946 643.815 81.9946C645.131 81.9946 646.139 82.2811 646.841 82.854C647.542 83.4269 647.893 84.2979 647.893 85.4671V92H646.025ZM645.236 87.4577L644.201 87.4928C643.424 87.5161 642.845 87.6564 642.465 87.9137C642.085 88.1709 641.895 88.5626 641.895 89.0887C641.895 89.8428 642.327 90.2199 643.193 90.2199C643.812 90.2199 644.306 90.0416 644.675 89.685C645.049 89.3284 645.236 88.8549 645.236 88.2644V87.4577ZM659.187 82.1963V83.5555L657.653 83.9501C657.933 84.3886 658.074 84.8796 658.074 85.4233C658.074 86.4756 657.705 87.2969 656.969 87.8874C656.238 88.472 655.221 88.7643 653.917 88.7643L653.435 88.738L653.04 88.6941C652.765 88.9046 652.628 89.1384 652.628 89.3956C652.628 89.7815 653.119 89.9744 654.101 89.9744H655.767C656.843 89.9744 657.661 90.2053 658.223 90.6671C658.79 91.129 659.073 91.8071 659.073 92.7015C659.073 93.8473 658.594 94.7359 657.635 95.3673C656.682 95.9986 655.311 96.3143 653.522 96.3143C652.155 96.3143 651.108 96.0746 650.383 95.5953C649.664 95.1217 649.305 94.4553 649.305 93.5959C649.305 93.0055 649.489 92.5115 649.857 92.114C650.225 91.7165 650.766 91.4329 651.479 91.2634C651.205 91.1465 650.965 90.9565 650.76 90.6934C650.556 90.4245 650.453 90.141 650.453 89.8428C650.453 89.4687 650.562 89.1589 650.778 88.9133C650.994 88.662 651.307 88.4164 651.716 88.1767C651.202 87.9546 650.792 87.598 650.488 87.1069C650.19 86.6159 650.041 86.0371 650.041 85.3707C650.041 84.3009 650.389 83.4737 651.085 82.8891C651.78 82.3045 652.774 82.0122 654.066 82.0122C654.341 82.0122 654.665 82.0385 655.04 82.0911C655.42 82.1379 655.662 82.1729 655.767 82.1963H659.187ZM651.62 93.3855C651.62 93.7538 651.795 94.0432 652.146 94.2536C652.502 94.4641 652.999 94.5693 653.636 94.5693C654.595 94.5693 655.346 94.4378 655.89 94.1747C656.434 93.9116 656.706 93.5521 656.706 93.0961C656.706 92.7278 656.545 92.4735 656.223 92.3332C655.902 92.1929 655.405 92.1228 654.733 92.1228H653.347C652.856 92.1228 652.444 92.2368 652.111 92.4648C651.783 92.6986 651.62 93.0055 651.62 93.3855ZM652.593 85.4058C652.593 85.9377 652.713 86.3586 652.953 86.6685C653.198 86.9783 653.569 87.1332 654.066 87.1332C654.569 87.1332 654.937 86.9783 655.171 86.6685C655.405 86.3586 655.522 85.9377 655.522 85.4058C655.522 84.2249 655.037 83.6344 654.066 83.6344C653.084 83.6344 652.593 84.2249 652.593 85.4058ZM664.87 83.915C664.302 83.915 663.858 84.0963 663.537 84.4587C663.215 84.8153 663.031 85.3239 662.984 85.9845H666.737C666.726 85.3239 666.553 84.8153 666.22 84.4587C665.887 84.0963 665.437 83.915 664.87 83.915ZM665.247 92.1754C663.668 92.1754 662.435 91.7399 661.546 90.8688C660.657 89.9978 660.213 88.7643 660.213 87.1683C660.213 85.5256 660.622 84.257 661.441 83.3626C662.265 82.4623 663.402 82.0122 664.852 82.0122C666.237 82.0122 667.316 82.4068 668.088 83.196C668.859 83.9852 669.245 85.0755 669.245 86.4668V87.7646H662.923C662.952 88.5246 663.177 89.1179 663.598 89.5447C664.019 89.9715 664.609 90.1848 665.369 90.1848C665.96 90.1848 666.518 90.1234 667.044 90.0007C667.57 89.8779 668.12 89.6821 668.693 89.4132V91.4826C668.225 91.7165 667.725 91.8889 667.193 92C666.661 92.1169 666.012 92.1754 665.247 92.1754ZM680.198 92H677.523V86.2739C677.523 85.5665 677.403 85.0375 677.164 84.6867C676.93 84.3301 676.559 84.1518 676.05 84.1518C675.366 84.1518 674.869 84.4032 674.559 84.9059C674.249 85.4087 674.094 86.2359 674.094 87.3875V92H671.42V82.1963H673.463L673.823 83.4503H673.972C674.235 83.0001 674.615 82.6494 675.112 82.398C675.609 82.1408 676.179 82.0122 676.822 82.0122C678.289 82.0122 679.283 82.4915 679.803 83.4503H680.04C680.303 82.9943 680.689 82.6406 681.197 82.3892C681.712 82.1379 682.29 82.0122 682.934 82.0122C684.044 82.0122 684.883 82.2986 685.45 82.8715C686.023 83.4386 686.31 84.3506 686.31 85.6074V92H683.626V86.2739C683.626 85.5665 683.506 85.0375 683.267 84.6867C683.033 84.3301 682.662 84.1518 682.153 84.1518C681.498 84.1518 681.007 84.3856 680.68 84.8533C680.358 85.321 680.198 86.0634 680.198 87.0806V92ZM693.123 83.915C692.556 83.915 692.112 84.0963 691.79 84.4587C691.469 84.8153 691.285 85.3239 691.238 85.9845H694.991C694.979 85.3239 694.807 84.8153 694.473 84.4587C694.14 84.0963 693.69 83.915 693.123 83.915ZM693.5 92.1754C691.922 92.1754 690.688 91.7399 689.8 90.8688C688.911 89.9978 688.467 88.7643 688.467 87.1683C688.467 85.5256 688.876 84.257 689.694 83.3626C690.519 82.4623 691.656 82.0122 693.106 82.0122C694.491 82.0122 695.57 82.4068 696.341 83.196C697.113 83.9852 697.499 85.0755 697.499 86.4668V87.7646H691.176C691.206 88.5246 691.431 89.1179 691.852 89.5447C692.272 89.9715 692.863 90.1848 693.623 90.1848C694.213 90.1848 694.772 90.1234 695.298 90.0007C695.824 89.8779 696.373 89.6821 696.946 89.4132V91.4826C696.479 91.7165 695.979 91.8889 695.447 92C694.915 92.1169 694.266 92.1754 693.5 92.1754ZM708.723 92H706.048V86.2739C706.048 85.5665 705.923 85.0375 705.671 84.6867C705.42 84.3301 705.02 84.1518 704.47 84.1518C703.722 84.1518 703.181 84.4032 702.848 84.9059C702.515 85.4028 702.348 86.23 702.348 87.3875V92H699.673V82.1963H701.717L702.076 83.4503H702.225C702.523 82.9768 702.933 82.6202 703.453 82.3805C703.979 82.1349 704.575 82.0122 705.242 82.0122C706.382 82.0122 707.247 82.322 707.837 82.9417C708.428 83.5555 708.723 84.4441 708.723 85.6074V92ZM715.607 90.0445C716.074 90.0445 716.636 89.9422 717.29 89.7376V91.7282C716.624 92.0263 715.805 92.1754 714.835 92.1754C713.765 92.1754 712.985 91.9065 712.494 91.3686C712.008 90.825 711.766 90.0124 711.766 88.9309V84.2044H710.486V83.0732L711.959 82.1788L712.73 80.1093H714.44V82.1963H717.185V84.2044H714.44V88.9309C714.44 89.3109 714.546 89.5915 714.756 89.7727C714.972 89.9539 715.256 90.0445 715.607 90.0445Z" fill="black"/>
</svg>
